<?xml version="1.0" standalone="no"?>
<!DOCTYPE svg PUBLIC "-//W3C//DTD SVG 20010904//EN"
 "http://www.w3.org/TR/2001/REC-SVG-20010904/DTD/svg10.dtd">
<svg version="1.0" xmlns="http://www.w3.org/2000/svg"
 width="1600.000000pt" height="990.000000pt" viewBox="0 0 1600.000000 990.000000"
 preserveAspectRatio="xMidYMid meet">

<g transform="translate(0.000000,990.000000) scale(0.100000,-0.100000)"
fill="#000000" stroke="none">
<path d="M4900 9765 c0 -120 8 -161 23 -122 4 7 6 6 6 -4 1 -9 -6 -19 -14 -23
-10 -4 -15 -20 -15 -53 l0 -48 -147 -147 -148 -148 313 0 c171 0 312 2 312 4
0 2 -65 69 -145 148 l-145 145 0 191 c0 185 -1 192 -20 192 -19 0 -20 -7 -20
-135z"/>
<path d="M11230 9710 l0 -190 -145 -144 c-80 -79 -145 -147 -145 -150 0 -3
141 -6 312 -6 l313 0 -149 149 -149 149 -2 59 c-1 32 -2 118 -3 191 -2 110 -5
132 -17 132 -13 0 -15 -28 -15 -190z"/>
<path d="M8300 9485 c0 -13 27 -15 185 -15 158 0 185 2 185 15 0 13 -27 15
-185 15 -158 0 -185 -2 -185 -15z"/>
<path d="M7355 9480 c-3 -5 -1 -10 4 -10 6 0 11 5 11 10 0 6 -2 10 -4 10 -3 0
-8 -4 -11 -10z"/>
<path d="M7240 9406 c0 -51 7 -56 75 -45 l50 7 -55 -1 -55 -2 -2 38 -2 37 89
0 90 0 0 -33 c0 -18 -4 -37 -10 -43 -6 -6 4 -10 30 -11 24 -1 38 2 35 8 -4 5
-15 9 -26 9 -12 0 -19 5 -17 13 3 8 29 13 74 15 104 4 110 10 12 11 -70 1 -88
4 -88 16 0 12 29 15 185 15 152 0 185 -3 185 -15 0 -7 -8 -16 -17 -18 -17 -4
-17 -5 0 -6 20 -1 23 -27 5 -34 -7 -2 -38 -2 -68 1 -30 2 -53 2 -50 -1 3 -3
35 -8 73 -10 l67 -6 0 45 0 44 90 0 c73 0 90 -3 90 -15 0 -12 -16 -15 -85 -15
-47 0 -85 -3 -85 -7 0 -5 37 -8 82 -8 67 0 83 -3 83 -15 0 -8 5 -18 10 -22 13
-10 71 -10 61 -1 -4 4 -17 8 -29 8 -12 0 -23 7 -25 18 -3 15 6 17 87 17 74 0
91 -3 91 -15 0 -16 -3 -17 -70 -17 l-45 0 50 -7 c60 -9 75 -5 75 20 0 17 8 19
90 19 73 0 90 -3 90 -15 0 -8 -4 -15 -10 -15 -5 0 -10 -3 -10 -7 0 -5 56 -8
124 -8 70 0 118 4 110 8 -8 5 -57 7 -109 5 -87 -3 -95 -1 -95 15 0 17 9 18 95
16 52 -2 98 0 101 4 4 4 -38 7 -94 7 -85 0 -102 3 -102 15 0 14 24 15 185 13
102 -2 185 0 185 5 0 4 -342 7 -760 7 l-760 0 0 -44z m950 19 c0 -12 -17 -15
-90 -15 -73 0 -90 3 -90 15 0 12 17 15 90 15 73 0 90 -3 90 -15z m190 0 c0
-12 -17 -15 -90 -15 -73 0 -90 3 -90 15 0 12 17 15 90 15 73 0 90 -3 90 -15z"/>
<path d="M7620 9384 c0 -21 5 -31 15 -31 8 0 15 4 15 9 0 4 -4 8 -10 8 -5 0
-10 7 -10 15 0 11 17 15 73 17 l72 3 -78 5 -77 5 0 -31z"/>
<path d="M7271 9406 c7 -8 118 -10 126 -3 3 4 -24 7 -62 7 -38 0 -66 -2 -64
-4z"/>
<path d="M8633 9403 c20 -2 54 -2 75 0 20 2 3 4 -38 4 -41 0 -58 -2 -37 -4z"/>
<path d="M7380 9360 c0 -5 5 -10 10 -10 6 0 10 5 10 10 0 6 -4 10 -10 10 -5 0
-10 -4 -10 -10z"/>
<path d="M7510 9363 c0 -5 22 -8 49 -8 27 0 47 3 44 8 -2 4 -24 7 -49 7 -24 0
-44 -3 -44 -7z"/>
<path d="M7830 9363 c0 -5 22 -8 49 -8 27 0 47 3 44 8 -2 4 -24 7 -49 7 -24 0
-44 -3 -44 -7z"/>
<path d="M7945 9360 c-3 -5 3 -10 15 -10 12 0 18 5 15 10 -3 6 -10 10 -15 10
-5 0 -12 -4 -15 -10z"/>
<path d="M8210 9361 c0 -3 31 -6 69 -6 38 0 67 3 65 6 -5 8 -134 8 -134 0z"/>
<path d="M8641 9366 c2 -2 26 -6 53 -9 30 -3 43 -1 35 4 -13 8 -97 13 -88 5z"/>
<path d="M2497 9194 c-26 -8 -45 -19 -42 -24 3 -6 0 -7 -7 -5 -20 8 -85 -64
-103 -114 -19 -56 -19 -131 1 -179 29 -71 115 -139 160 -128 15 4 23 3 20 -3
-17 -27 93 -22 151 8 45 22 99 80 114 120 17 42 21 125 10 167 -17 62 -85 131
-153 154 -67 23 -86 24 -151 4z m167 -44 c22 -10 43 -17 49 -13 6 4 7 1 2 -6
-4 -7 1 -20 13 -31 11 -11 26 -35 33 -55 8 -21 18 -34 26 -31 9 4 10 0 1 -19
-8 -19 -8 -28 3 -42 8 -9 9 -14 3 -10 -7 4 -16 -9 -23 -32 -14 -48 -14 -54 1
-45 7 4 8 3 4 -5 -4 -6 -11 -9 -16 -6 -5 3 -18 -8 -29 -24 -46 -64 -161 -93
-239 -59 -24 10 -48 15 -53 12 -5 -3 -8 -2 -7 3 5 13 -38 63 -47 55 -5 -4 -5
-2 -2 4 4 7 0 28 -8 48 -22 52 -19 66 13 67 l27 2 -27 4 c-33 5 -35 22 -9 79
20 44 49 76 96 105 41 26 138 26 189 -1z"/>
<path d="M2587 8989 c-26 -30 -15 -34 13 -4 13 14 19 25 14 25 -5 0 -18 -9
-27 -21z"/>
<path d="M7348 8938 c0 -13 0 -30 1 -38 0 -8 1 -138 1 -288 l-1 -272 381 0
382 1 269 269 c264 264 269 269 269 309 l0 41 -650 0 -650 0 -2 -22z m712
-143 l0 -75 74 0 c41 0 76 -3 78 -7 2 -5 1 -35 -2 -68 l-5 -60 -70 0 c-55 0
-70 -3 -71 -15 -1 -8 -2 -41 -3 -72 l-1 -58 -65 0 -65 0 0 75 0 75 -75 0 -76
0 3 63 3 62 73 3 72 3 0 74 0 75 65 0 65 0 0 -75z m-567 -59 c69 -69 123 -127
120 -129 -4 -5 -253 240 -253 249 0 11 17 -4 133 -120z"/>
<path d="M8393 8605 c-139 -139 -253 -256 -253 -258 0 -3 115 -6 255 -7 l255
-1 0 261 c0 143 -1 260 -2 259 -2 0 -117 -114 -255 -254z"/>
<path d="M1567 8713 c-11 -10 -8 -51 3 -58 6 -4 10 5 10 20 l0 26 153 -3 152
-3 3 -212 2 -213 -155 0 -155 0 0 179 c0 112 -4 182 -10 186 -7 4 -10 -57 -8
-187 l3 -193 168 -3 167 -2 2 97 c4 266 5 349 0 361 -3 9 -46 12 -166 12 -90
0 -166 -3 -169 -7z"/>
<path d="M3256 8703 c-6 -24 -7 -413 0 -436 5 -16 19 -17 140 -16 74 1 137 5
140 10 3 5 -55 9 -130 9 l-136 0 0 215 0 216 153 -3 152 -3 3 -209 c2 -145 -1
-213 -9 -222 -9 -11 -7 -14 9 -14 19 0 20 7 21 235 l2 235 -170 0 c-153 0
-170 -2 -175 -17z"/>
<path d="M4196 8703 c-4 -9 -6 -61 -5 -115 l1 -97 264 -3 c145 -2 264 -1 264
3 0 3 -5 10 -12 17 -9 9 -9 12 1 12 8 0 19 -7 25 -16 10 -13 47 -15 273 -15
l261 0 30 31 c17 16 36 30 44 30 7 0 -2 -12 -19 -26 -18 -14 -33 -28 -33 -32
0 -4 209 -7 465 -7 256 0 465 3 465 7 0 4 -7 11 -16 16 -11 6 -13 11 -5 16 6
4 11 2 11 -3 0 -6 5 -11 10 -11 6 0 10 42 10 105 l0 105 -1014 0 c-945 0
-1014 -1 -1020 -17z m344 -3 c0 -5 -4 -10 -9 -10 -6 0 -13 5 -16 10 -3 6 1 10
9 10 9 0 16 -4 16 -10z m950 -10 c-25 -21 -23 -23 28 -20 23 1 32 -3 32 -14 0
-9 -4 -16 -10 -16 -5 0 -10 -11 -10 -24 0 -14 5 -28 10 -31 24 -15 9 -35 -25
-35 -37 0 -42 9 -23 39 15 24 4 51 -22 51 -17 0 -20 -6 -20 -45 0 -33 -4 -45
-15 -45 -9 0 -15 9 -15 24 0 14 -4 27 -10 31 -5 3 -7 12 -3 20 3 9 -1 15 -11
15 -10 0 -13 6 -10 15 4 9 19 15 40 15 23 0 37 6 44 20 6 11 18 20 27 20 12 0
11 -4 -7 -20z m591 -43 c83 -83 114 -117 106 -117 -4 0 -48 41 -98 90 -50 50
-87 90 -82 90 6 0 39 -29 74 -63z m-1485 -4 c18 -20 36 -34 40 -30 4 4 2 13
-4 19 -22 22 -13 38 19 38 30 0 31 -1 25 -34 -4 -18 -2 -44 3 -57 8 -20 10
-13 10 34 1 65 16 74 50 31 l21 -27 0 27 c0 19 5 26 20 26 18 0 20 -7 20 -60
0 -64 -13 -77 -40 -40 -19 27 -30 25 -30 -4 0 -20 -4 -23 -22 -18 -14 3 -19 2
-14 -6 4 -7 3 -12 -3 -12 -5 0 -13 5 -16 10 -3 6 -18 10 -32 10 -21 0 -24 4
-20 23 5 17 -3 30 -34 56 -36 32 -48 51 -32 51 3 0 21 -17 39 -37z m302 10
c-2 -11 -11 -17 -21 -15 -9 2 -17 -2 -17 -8 0 -5 7 -10 15 -10 8 0 15 -9 15
-20 0 -11 -7 -20 -15 -20 -8 0 -15 -7 -15 -15 0 -8 -9 -15 -20 -15 -18 0 -20
7 -20 60 l0 60 41 0 c33 0 40 -3 37 -17z m114 0 c22 -20 23 -61 1 -85 -18 -20
-73 -24 -91 -6 -19 19 -15 85 6 97 26 16 63 13 84 -6z m116 0 c5 -10 10 -37 9
-60 0 -47 -19 -58 -43 -25 -13 16 -13 16 -14 0 0 -11 -8 -18 -20 -18 -18 0
-20 7 -20 60 l0 60 40 0 c27 0 42 -5 48 -17z m65 -5 l15 -23 24 23 c13 12 27
22 31 22 4 0 7 -27 7 -60 0 -54 -2 -60 -21 -60 -15 0 -19 4 -15 16 4 11 2 15
-8 11 -7 -3 -19 0 -25 6 -8 8 -11 6 -11 -10 0 -21 -25 -39 -35 -24 -5 9 -4
102 2 114 7 13 20 7 36 -15z m171 -15 c6 -16 16 -28 22 -26 6 2 11 -9 11 -25
0 -28 -1 -29 -59 -28 -32 0 -58 4 -58 9 0 20 52 108 62 105 7 -3 16 -18 22
-35z m290 24 c17 -13 32 -102 15 -91 -4 2 -10 0 -14 -6 -3 -5 -22 -10 -40 -10
-26 0 -39 6 -51 25 -17 27 -12 73 9 87 19 12 62 9 81 -5z m78 -14 l28 -27 0
28 c0 20 4 27 17 24 14 -3 17 -13 14 -58 -1 -30 -5 -57 -7 -59 -2 -3 -15 6
-29 19 -24 22 -25 23 -25 3 0 -25 -8 -33 -26 -26 -10 4 -14 23 -14 64 0 32 3
59 7 59 4 0 20 -12 35 -27z"/>
<path d="M4952 8628 c-16 -16 -15 -35 1 -40 32 -12 50 19 24 41 -10 8 -17 7
-25 -1z"/>
<path d="M5087 8633 c-4 -3 -7 -11 -7 -17 0 -6 5 -5 12 2 6 6 9 14 7 17 -3 3
-9 2 -12 -2z"/>
<path d="M5590 8611 c0 -27 19 -36 37 -18 18 18 9 37 -18 37 -12 0 -19 -7 -19
-19z"/>
<path d="M10531 8605 l-2 -115 63 -1 c35 0 78 -1 96 -2 28 -2 32 1 28 16 -4
18 -3 18 14 2 16 -14 49 -16 281 -16 l262 1 28 32 c15 18 30 30 35 26 4 -4 -5
-17 -20 -29 -31 -25 -28 -36 11 -33 15 1 79 2 141 3 l112 1 0 115 0 115 -523
0 -524 0 -2 -115z m943 70 c-20 -19 -39 -33 -42 -30 -8 8 50 65 66 65 7 0 -3
-16 -24 -35z m-859 -63 c-8 -8 -65 50 -65 66 0 7 16 -3 35 -24 19 -20 33 -39
30 -42z m805 14 c0 -10 -63 -66 -68 -61 -6 6 48 65 60 65 4 0 8 -2 8 -4z
m-750 -57 c17 -17 28 -34 25 -37 -6 -6 -65 48 -65 60 0 13 7 9 40 -23z"/>
<path d="M11820 8605 l0 -115 173 -1 c94 -1 184 -2 200 -3 15 -1 27 -1 27 1 0
2 -50 53 -111 113 -61 61 -107 110 -101 110 5 0 60 -49 121 -110 l112 -110
242 0 c133 0 251 -3 263 -6 15 -4 34 6 67 33 l46 38 0 83 1 82 -520 0 -520 0
0 -115z"/>
<path d="M13100 8605 l0 -115 520 0 520 0 0 115 0 115 -520 0 -520 0 0 -115z
m469 55 c28 -27 47 -51 43 -53 -4 -2 -31 20 -59 50 -66 67 -53 70 16 3z"/>
<path d="M14382 8605 l3 -116 419 1 c230 0 421 2 424 4 2 3 -43 53 -102 111
-58 58 -102 105 -96 105 5 0 60 -51 122 -113 l113 -112 78 3 77 4 0 114 0 114
-520 0 -521 0 3 -115z m96 83 c-13 -13 -38 -37 -56 -55 -18 -18 -32 -28 -32
-23 0 12 89 100 101 100 6 0 -1 -10 -13 -22z"/>
<path d="M2048 8528 c-2 -13 -2 -80 0 -150 l3 -128 229 0 229 0 3 128 c2 70 2
137 0 150 l-3 22 -229 0 -229 0 -3 -22z m444 5 c2 -5 2 -66 0 -138 l-3 -130
-211 2 -211 2 1 133 c1 73 1 134 2 136 1 6 419 1 422 -5z"/>
<path d="M2397 8343 c-4 -3 -7 -11 -7 -17 0 -6 5 -5 12 2 6 6 9 14 7 17 -3 3
-9 2 -12 -2z"/>
<path d="M2435 8330 c3 -5 8 -10 11 -10 2 0 4 5 4 10 0 6 -5 10 -11 10 -5 0
-7 -4 -4 -10z"/>
<path d="M2640 8400 l0 -150 233 2 232 3 3 148 3 147 -236 0 -235 0 0 -150z
m450 5 l0 -135 -205 0 c-113 0 -208 0 -212 0 -9 0 -16 237 -9 257 4 10 52 13
216 13 l210 0 0 -135z"/>
<path d="M2985 8330 c-3 -5 -1 -10 4 -10 6 0 11 5 11 10 0 6 -2 10 -4 10 -3 0
-8 -4 -11 -10z"/>
<path d="M3025 8330 c3 -5 8 -10 11 -10 2 0 4 5 4 10 0 6 -5 10 -11 10 -5 0
-7 -4 -4 -10z"/>
<path d="M12826 8515 l-29 -25 31 0 c27 0 32 4 32 25 0 14 -1 25 -2 25 -2 0
-16 -11 -32 -25z"/>
<path d="M1740 8321 c0 -6 5 -13 10 -16 6 -3 10 1 10 9 0 9 -4 16 -10 16 -5 0
-10 -4 -10 -9z"/>
<path d="M3436 8317 c3 -10 9 -15 12 -12 3 3 0 11 -7 18 -10 9 -11 8 -5 -6z"/>
<path d="M1705 8310 c-3 -5 -1 -10 4 -10 6 0 11 5 11 10 0 6 -2 10 -4 10 -3 0
-8 -4 -11 -10z"/>
<path d="M4640 8234 c0 -16 24 -100 30 -107 6 -7 40 84 40 107 0 3 -16 6 -35
6 -19 0 -35 -3 -35 -6z m46 -36 c-3 -13 -6 -27 -7 -33 -1 -12 -17 25 -18 43
-1 6 6 12 15 12 12 0 15 -6 10 -22z"/>
<path d="M4805 8226 c-48 -22 -77 -60 -82 -110 -6 -47 -11 -54 -29 -36 -16 16
-59 -12 -62 -43 -3 -26 -5 -27 -65 -27 -34 0 -67 -4 -73 -8 -6 -4 -15 -45 -21
-92 -6 -46 -16 -86 -22 -88 -6 -2 -11 -23 -11 -47 0 -34 4 -45 19 -50 31 -10
52 5 49 34 -3 25 -1 26 55 28 46 2 62 -2 77 -17 28 -28 25 -66 -5 -86 -47 -31
-100 9 -89 67 2 13 -1 9 -8 -9 -10 -29 -8 -35 12 -57 40 -43 103 -29 123 26 4
13 16 15 64 11 49 -4 62 -9 81 -33 30 -37 81 -40 112 -7 11 12 20 25 20 29 0
5 12 14 28 21 23 11 27 20 30 60 3 40 0 49 -23 65 -95 66 -104 86 -53 118 49
31 71 68 71 118 0 105 -103 175 -198 133z m127 -23 c78 -39 75 -176 -4 -219
-27 -15 -101 -18 -126 -5 -12 6 -24 2 -42 -15 -20 -20 -22 -24 -7 -24 13 0 17
-8 17 -35 0 -33 -2 -35 -35 -35 -32 0 -35 3 -35 28 0 16 9 36 23 47 l22 20
-122 3 c-71 1 -123 7 -123 12 0 10 21 12 178 12 50 0 92 2 92 4 0 2 -9 18 -20
36 -23 39 -25 78 -6 116 38 74 109 95 188 55z m-232 -148 c18 -21 5 -45 -24
-45 -31 0 -36 8 -25 38 10 25 31 29 49 7z m40 -35 c0 -5 -4 -10 -10 -10 -5 0
-10 5 -10 10 0 6 5 10 10 10 6 0 10 -4 10 -10z m-170 -103 c-3 -24 -4 -49 -2
-55 5 -15 58 -16 68 -1 4 7 -4 10 -22 7 -27 -3 -29 -1 -29 32 0 32 3 35 32 38
30 3 32 1 36 -35 3 -26 4 -23 2 10 -2 42 0 47 19 47 20 0 22 -5 21 -52 0 -48
2 -53 24 -56 12 -2 34 -1 47 2 20 5 24 13 24 44 0 21 -5 43 -12 50 -9 9 -6 12
15 12 26 0 27 -2 21 -40 -9 -57 5 -70 76 -70 55 0 57 -1 53 -24 l-5 -25 -212
0 c-256 -1 -251 -3 -241 93 l7 66 43 0 42 0 -7 -43z m332 -11 c15 -18 25 -35
23 -37 -2 -3 -24 -3 -49 -1 -45 4 -46 5 -46 38 0 29 4 34 23 34 13 0 33 -13
49 -34z m91 -91 c-4 -15 -36 -12 -41 3 -3 9 3 13 19 10 13 -1 23 -7 22 -13z
m-503 -40 c0 -28 -4 -35 -20 -35 -16 0 -20 7 -20 35 0 28 4 35 20 35 16 0 20
-7 20 -35z m327 -10 c-11 -23 -17 -25 -77 -25 -60 0 -66 2 -77 25 l-11 25 88
0 88 0 -11 -25z m98 1 c22 -22 23 -29 14 -53 -12 -31 -26 -43 -53 -43 -52 0
-76 75 -34 104 31 22 45 20 73 -8z m75 -1 c0 -30 -26 -34 -46 -7 -20 26 -17
32 16 32 25 0 30 -4 30 -25z"/>
<path d="M4827 8174 c-4 -4 -7 -16 -7 -26 0 -11 -7 -18 -20 -18 -16 0 -20 -7
-20 -35 0 -24 5 -35 14 -35 8 0 21 -3 30 -6 9 -3 16 -1 16 5 0 6 -11 11 -25
11 -20 0 -25 5 -25 25 0 20 5 25 25 25 20 0 25 5 25 26 0 21 4 25 23 22 16 -2
22 -9 21 -25 0 -17 5 -23 21 -23 28 0 34 -7 28 -31 -3 -10 -14 -19 -24 -19
-11 0 -20 -4 -20 -10 -1 -5 -2 -16 -3 -22 -1 -8 -13 -12 -29 -11 -15 1 -27 -3
-27 -8 0 -6 15 -9 33 -7 24 2 33 8 35 25 2 14 11 23 25 25 32 4 32 62 0 66
-14 2 -23 11 -25 25 -2 16 -11 23 -33 25 -17 2 -34 0 -38 -4z"/>
<path d="M4539 8200 c-16 -13 -20 -22 -13 -27 5 -5 27 -21 47 -37 21 -16 40
-26 43 -23 6 5 -34 95 -46 102 -4 3 -19 -4 -31 -15z m39 -25 c6 -14 8 -25 3
-25 -13 0 -42 36 -34 43 12 12 20 8 31 -18z"/>
<path d="M4480 8127 c0 -7 -3 -22 -6 -34 -6 -22 -4 -23 55 -23 33 0 61 3 61 8
-1 13 -110 62 -110 49z m44 -23 c24 -9 19 -24 -8 -24 -26 0 -40 12 -29 24 8 8
17 8 37 0z"/>
<path d="M3293 8020 c-49 -11 -82 -37 -88 -68 -3 -15 -10 -43 -15 -63 -11 -40
-13 -171 -4 -206 7 -26 55 -47 89 -39 33 8 32 16 -9 59 -55 58 -62 138 -16
182 17 16 30 35 30 43 0 9 14 2 38 -19 21 -19 37 -37 35 -41 -2 -5 7 -8 21 -8
13 0 31 -2 39 -6 10 -3 16 4 20 25 7 34 13 36 52 21 20 -8 25 -15 20 -30 -7
-23 19 -78 29 -61 11 17 -21 104 -55 151 -45 62 -102 80 -186 60z"/>
<path d="M8275 8010 c-38 -15 -50 -41 -52 -109 0 -36 -4 -82 -8 -102 -5 -26
-3 -38 9 -48 20 -17 20 -50 1 -75 -8 -11 -15 -28 -15 -39 0 -17 5 -18 58 -11
81 9 94 21 47 42 -40 18 -65 69 -65 133 0 67 14 84 82 93 26 4 54 13 62 21 16
17 26 9 26 -20 0 -26 18 -45 42 -45 26 0 23 -39 -7 -91 -15 -27 -25 -60 -25
-84 l0 -41 59 -12 c32 -7 64 -19 71 -27 33 -40 41 2 9 47 -16 22 -19 32 -10
41 17 17 13 52 -9 72 -16 14 -19 26 -14 55 4 23 2 40 -5 44 -6 4 -11 24 -11
45 0 43 -31 91 -60 91 -9 0 -23 7 -30 15 -14 17 -119 20 -155 5z"/>
<path d="M846 7975 c-55 -20 -116 -88 -116 -130 0 -44 19 -85 40 -85 9 0 21
-5 28 -12 9 -9 13 -7 19 7 9 25 9 75 0 101 -7 21 -5 21 62 16 50 -3 77 0 100
11 l31 15 0 -59 c0 -46 3 -59 15 -59 12 0 15 13 14 63 -1 88 -9 109 -49 129
-42 21 -91 22 -144 3z"/>
<path d="M2088 7940 c-27 -26 -36 -29 -65 -24 -21 4 -44 1 -58 -6 -28 -15 -55
-77 -54 -123 l1 -32 7 30 c5 23 13 31 37 36 17 3 36 9 42 13 7 4 23 -5 38 -23
13 -16 34 -33 44 -36 33 -11 43 -41 26 -77 -9 -17 -16 -32 -16 -33 0 -1 10 -1
23 0 12 1 33 -6 46 -17 29 -22 64 -23 96 -2 31 20 42 48 15 39 -13 -4 -24 1
-36 20 -16 25 -16 30 6 100 20 64 21 77 10 105 -28 67 -107 82 -162 30z m72
-209 c0 -31 -11 -51 -27 -51 -10 0 -13 6 -9 16 3 9 6 24 6 35 0 10 7 19 15 19
8 0 15 -9 15 -19z"/>
<path d="M5120 7834 c-39 -16 -75 -63 -90 -115 -20 -69 -8 -211 24 -289 4 -11
-7 -22 -38 -38 l-43 -23 -7 -86 c-4 -47 -5 -87 -3 -89 3 -3 22 -7 43 -11 22
-3 44 -11 50 -19 6 -7 22 -18 36 -23 17 -6 27 -20 32 -41 11 -57 7 -85 -26
-176 -32 -89 -32 -90 -31 -270 1 -108 6 -190 12 -202 14 -27 122 -62 185 -61
28 0 69 6 90 12 35 11 41 17 58 67 28 81 56 206 63 281 9 85 -10 155 -67 244
-23 36 -43 75 -44 88 -4 35 17 201 26 211 4 4 16 -8 25 -28 24 -51 35 -57 74
-40 38 16 38 12 -9 124 -34 83 -50 100 -92 100 l-28 0 0 85 c0 111 -15 175
-54 232 -52 76 -113 98 -186 67z m53 -116 c4 -10 8 -9 16 2 9 13 11 13 11 -1
0 -8 11 -30 24 -48 14 -18 22 -40 19 -49 -3 -11 2 -8 14 6 16 20 21 21 31 10
15 -19 5 -55 -26 -97 -20 -26 -25 -45 -23 -76 2 -29 -3 -45 -16 -56 -43 -37
-73 -28 -73 23 0 17 -5 28 -13 28 -18 0 -53 39 -66 72 -13 36 -22 128 -15 151
11 34 106 62 117 35z"/>
<path d="M5090 7625 c0 -8 5 -15 10 -15 6 0 10 7 10 15 0 8 -4 15 -10 15 -5 0
-10 -7 -10 -15z"/>
<path d="M5181 7624 c0 -11 3 -14 6 -6 3 7 2 16 -1 19 -3 4 -6 -2 -5 -13z"/>
<path d="M3260 7820 c0 -5 5 -10 10 -10 6 0 10 5 10 10 0 6 -4 10 -10 10 -5 0
-10 -4 -10 -10z"/>
<path d="M970 7790 c0 -5 5 -10 10 -10 6 0 10 5 10 10 0 6 -4 10 -10 10 -5 0
-10 -4 -10 -10z"/>
<path d="M870 7780 c0 -5 5 -10 11 -10 5 0 7 5 4 10 -3 6 -8 10 -11 10 -2 0
-4 -4 -4 -10z"/>
<path d="M3440 7777 c0 -8 -11 -27 -25 -43 -28 -33 -33 -79 -9 -88 42 -16 101
2 136 41 17 19 16 21 -15 55 -35 38 -87 59 -87 35z"/>
<path d="M1948 7773 c7 -3 16 -2 19 1 4 3 -2 6 -13 5 -11 0 -14 -3 -6 -6z"/>
<path d="M2050 7760 c8 -5 20 -10 25 -10 6 0 3 5 -5 10 -8 5 -19 10 -25 10 -5
0 -3 -5 5 -10z"/>
<path d="M1945 7740 c3 -5 8 -10 11 -10 2 0 4 5 4 10 0 6 -5 10 -11 10 -5 0
-7 -4 -4 -10z"/>
<path d="M7448 7608 c-3 -7 -3 -21 0 -31 4 -16 15 -17 91 -15 84 3 86 3 86 28
0 25 -2 25 -87 28 -63 2 -87 -1 -90 -10z"/>
<path d="M907 7555 c-22 -30 -31 -31 -69 -4 -25 18 -33 20 -56 10 l-26 -12 30
-24 c16 -14 35 -22 42 -20 8 3 10 0 6 -7 -5 -8 -2 -9 10 -5 10 4 21 7 24 7 4
0 0 5 -8 10 -10 7 -11 10 -2 10 7 0 15 -6 18 -14 7 -19 33 -11 71 23 l32 28
-25 12 c-31 14 -26 15 -47 -14z"/>
<path d="M1036 7531 c-4 -5 3 -7 14 -4 23 6 26 13 6 13 -8 0 -17 -4 -20 -9z"/>
<path d="M3380 7465 c0 -22 4 -25 40 -25 36 0 40 3 40 25 0 23 -4 25 -40 25
-36 0 -40 -2 -40 -25z"/>
<path d="M8380 7467 c0 -31 4 -34 40 -29 24 3 30 9 30 28 0 21 -5 24 -35 24
-30 0 -35 -3 -35 -23z"/>
<path d="M10903 7411 c-41 -25 -53 -88 -29 -145 9 -21 21 -67 27 -102 14 -83
40 -106 107 -97 26 3 57 11 69 19 27 17 51 83 33 94 -6 4 -10 22 -8 41 2 29 7
34 26 32 24 -3 27 2 36 54 6 37 -15 66 -74 102 -47 28 -142 29 -187 2z m185
-153 c3 -96 -4 -106 -58 -88 -33 11 -48 11 -72 2 -17 -6 -35 -9 -39 -6 -5 3
-9 41 -9 86 0 79 0 80 23 73 28 -9 91 -7 120 4 12 5 24 7 28 5 3 -1 6 -36 7
-76z m-63 -108 c4 -6 -9 -10 -32 -9 -34 1 -35 2 -13 9 35 11 38 11 45 0z"/>
<path d="M10920 7280 c0 -13 11 -13 30 0 12 8 11 10 -7 10 -13 0 -23 -4 -23
-10z"/>
<path d="M11020 7282 c0 -4 11 -9 25 -10 14 -1 25 3 25 8 0 6 -11 10 -25 10
-14 0 -25 -4 -25 -8z"/>
<path d="M10940 7240 c0 -5 5 -10 10 -10 6 0 10 5 10 10 0 6 -4 10 -10 10 -5
0 -10 -4 -10 -10z"/>
<path d="M11030 7240 c0 -5 5 -10 10 -10 6 0 10 5 10 10 0 6 -4 10 -10 10 -5
0 -10 -4 -10 -10z"/>
<path d="M2030 7385 c0 -22 4 -25 40 -25 36 0 40 3 40 25 0 23 -4 25 -40 25
-36 0 -40 -2 -40 -25z"/>
<path d="M720 7330 c0 -5 5 -10 11 -10 5 0 7 5 4 10 -3 6 -8 10 -11 10 -2 0
-4 -4 -4 -10z"/>
<path d="M778 7313 c7 -3 16 -2 19 1 4 3 -2 6 -13 5 -11 0 -14 -3 -6 -6z"/>
<path d="M14278 7282 l-128 -3 0 -199 0 -200 145 0 145 0 -1 199 c0 178 -2
199 -17 203 -9 1 -74 2 -144 0z m142 -91 l0 -69 -61 -62 c-34 -33 -64 -59 -67
-56 -3 3 23 33 57 67 34 34 60 63 58 65 -3 3 -54 -11 -114 -31 -61 -19 -114
-35 -119 -35 -5 0 -8 21 -7 47 1 27 2 69 2 96 l1 47 125 0 125 0 0 -69z"/>
<path d="M1030 7241 c0 -6 4 -13 10 -16 6 -3 7 1 4 9 -7 18 -14 21 -14 7z"/>
<path d="M12772 7220 c0 -14 2 -19 5 -12 2 6 2 18 0 25 -3 6 -5 1 -5 -13z"/>
<path d="M11820 7180 c0 -5 5 -10 10 -10 6 0 10 5 10 10 0 6 -4 10 -10 10 -5
0 -10 -4 -10 -10z"/>
<path d="M925 7110 c3 -5 8 -10 11 -10 2 0 4 5 4 10 0 6 -5 10 -11 10 -5 0 -7
-4 -4 -10z"/>
<path d="M1419 7102 c6 -11 7 -22 4 -26 -3 -3 6 -6 20 -6 23 0 25 3 18 23 -4
12 -18 23 -30 25 -20 3 -21 1 -12 -16z"/>
<path d="M1564 7099 c-3 -6 -16 -14 -28 -19 -12 -5 478 -9 1147 -9 1108 -1
1168 0 1165 17 -3 16 -66 17 -1140 19 -752 1 -1140 -2 -1144 -8z m826 -9 c0
-5 -7 -10 -16 -10 -8 0 -12 5 -9 10 3 6 10 10 16 10 5 0 9 -4 9 -10z"/>
<path d="M6620 7090 c6 -11 15 -20 20 -20 6 0 5 9 -2 20 -7 11 -16 20 -21 20
-4 0 -3 -9 3 -20z"/>
<path d="M6655 7100 c3 -5 11 -10 16 -10 6 0 7 5 4 10 -3 6 -11 10 -16 10 -6
0 -7 -4 -4 -10z"/>
<path d="M6693 7103 c4 -3 2 -12 -4 -20 -9 -10 -8 -13 5 -13 9 0 16 8 16 20 0
11 -5 20 -12 20 -6 0 -8 -3 -5 -7z"/>
<path d="M6724 7090 c0 -16 7 -20 38 -20 31 0 38 4 38 20 0 16 -7 20 -38 20
-31 0 -38 -4 -38 -20z"/>
<path d="M6840 7090 c-10 -19 -8 -20 32 -20 l43 0 -25 20 c-31 25 -37 25 -50
0z"/>
<path d="M6935 7090 c18 -20 41 -20 1257 -20 1175 0 1239 1 1236 18 -3 16 -37
17 -512 20 -474 2 -511 1 -529 -15 -19 -17 -20 -17 -14 0 6 17 -29 17 -724 17
-725 -1 -731 -1 -714 -20z"/>
<path d="M6591 7084 c0 -11 3 -14 6 -6 3 7 2 16 -1 19 -3 4 -6 -2 -5 -13z"/>
<path d="M14622 6991 l-2 -109 45 -4 45 -3 0 55 c0 80 -11 160 -21 154 -5 -3
-9 -19 -9 -35 0 -43 -32 -36 -41 9 -12 57 -15 44 -17 -67z"/>
<path d="M12583 7065 c1 -17 6 -33 12 -37 6 -5 2 -8 -7 -8 -10 0 -18 -5 -18
-10 0 -7 6 -7 20 0 23 13 26 38 6 65 -13 19 -14 18 -13 -10z"/>
<path d="M12761 7074 c0 -11 3 -14 6 -6 3 7 2 16 -1 19 -3 4 -6 -2 -5 -13z"/>
<path d="M12740 7051 c0 -5 7 -12 16 -15 14 -5 15 -4 4 9 -14 17 -20 19 -20 6z"/>
<path d="M923 7015 c-3 -9 -3 -18 -1 -21 3 -3 8 4 11 16 6 23 -1 27 -10 5z"/>
<path d="M14820 6945 l0 -70 176 2 177 1 44 44 c36 36 43 49 38 69 l-6 24
-214 0 -215 0 0 -70z"/>
<path d="M1844 6996 c-18 -8 -35 -19 -38 -25 -4 -6 -16 -11 -26 -11 -25 0 -50
-37 -50 -73 0 -15 9 -46 20 -67 l20 -40 -207 -1 c-115 -1 -211 -1 -215 0 -5 0
-8 -12 -8 -29 l0 -30 213 -1 c116 0 224 -2 240 -3 29 -2 36 8 12 18 -19 7 -20
56 -2 56 8 0 19 -10 25 -22 10 -22 11 -23 11 -2 1 12 -4 36 -11 54 -17 50 13
70 102 70 51 0 71 4 82 18 24 26 6 60 -44 82 -50 23 -81 24 -124 6z"/>
<path d="M10988 6995 c7 -11 8 -17 10 -56 1 -14 8 -34 16 -44 13 -18 15 -16
25 25 6 25 16 53 21 62 6 10 10 19 10 20 0 2 -20 3 -44 3 -27 0 -42 -4 -38
-10z"/>
<path d="M12950 6975 c-6 -14 -15 -37 -21 -52 -5 -16 -6 -23 -1 -18 12 13 43
95 37 95 -3 0 -10 -11 -15 -25z"/>
<path d="M12436 6893 c-12 -24 -36 -146 -36 -184 0 -29 11 3 26 77 9 43 23 91
30 107 8 15 10 27 5 27 -6 0 -17 -12 -25 -27z"/>
<path d="M10807 6895 c-17 -17 -35 -108 -44 -224 -6 -81 -8 -86 -45 -124 -33
-34 -38 -37 -38 -18 0 31 -20 26 -33 -9 -9 -25 -16 -30 -34 -25 -35 8 -35 -10
0 -23 20 -7 39 -25 52 -49 21 -40 61 -54 59 -21 -1 14 7 12 50 -13 l51 -29 -2
-74 c-2 -69 -6 -78 -56 -164 -84 -142 -84 -141 -50 -209 22 -44 36 -60 59 -68
17 -6 29 -15 27 -22 -7 -20 25 -15 47 7 25 25 52 26 48 3 -2 -12 5 -19 21 -21
15 -2 21 0 17 7 -5 8 27 11 104 11 78 0 109 -3 104 -11 -4 -7 1 -9 12 -7 11 2
18 11 16 21 -2 13 4 17 28 17 20 0 30 5 30 15 0 24 -31 31 -46 11 -11 -16 -13
-15 -16 10 -2 24 -8 28 -33 29 -30 0 -30 1 -35 62 -3 34 -3 103 -2 152 l4 91
29 0 29 0 0 -84 c0 -80 1 -85 23 -89 22 -4 22 -4 -2 -6 -18 -1 -22 -6 -18 -20
2 -10 0 -26 -5 -35 -7 -12 -5 -16 8 -16 14 0 14 -2 3 -16 -17 -21 4 -35 46
-32 17 1 35 -1 42 -5 8 -5 10 7 6 43 -2 27 0 64 6 82 5 18 12 70 15 115 6 99
11 111 36 81 26 -32 42 -14 51 59 4 32 12 94 18 138 10 71 9 81 -6 92 -26 20
-40 -1 -47 -70 -11 -102 -18 -137 -26 -132 -4 2 -5 29 -2 59 3 39 -1 66 -12
90 -9 19 -16 39 -16 45 0 6 -5 11 -11 11 -5 0 -8 -4 -4 -9 3 -6 -9 -8 -30 -4
-31 5 -36 2 -52 -26 -22 -38 -27 -39 -43 -1 -12 30 -13 30 -95 30 -61 0 -96
-5 -129 -20 -25 -10 -46 -21 -46 -23 0 -8 36 -5 63 5 38 15 53 -2 27 -30 -11
-12 -39 -26 -63 -33 -23 -6 -49 -17 -57 -24 -22 -20 -114 30 -118 64 -6 42 7
70 36 77 40 10 52 23 52 56 0 30 0 30 25 14 14 -9 25 -12 25 -6 0 5 -3 10 -8
10 -4 0 -7 12 -8 28 -3 215 -5 272 -13 272 -5 0 -16 -7 -24 -15z m420 -391
c-3 -3 -12 -4 -19 -1 -8 3 -5 6 6 6 11 1 17 -2 13 -5z m-7 -28 c-7 -7 -13 -7
-20 0 -6 6 -3 10 10 10 13 0 16 -4 10 -10z m72 -81 c3 -13 1 -22 -3 -19 -9 5
-13 44 -5 44 2 0 6 -11 8 -25z m-422 -15 c-8 -5 -17 -7 -19 -4 -3 3 1 9 9 14
8 5 17 7 19 4 3 -3 -1 -9 -9 -14z m320 -34 c0 -3 -4 -8 -10 -11 -5 -3 -10 -1
-10 4 0 6 5 11 10 11 6 0 10 -2 10 -4z m-321 -66 c0 -10 -3 -8 -9 5 -5 12 -9
14 -9 6 -1 -8 -3 -12 -6 -9 -3 3 -2 13 1 22 5 14 9 15 15 4 5 -7 8 -20 8 -28z
m-45 -125 c-4 -8 -8 -15 -10 -15 -2 0 -4 7 -4 15 0 8 4 15 10 15 5 0 7 -7 4
-15z m-22 -110 c2 -47 0 -71 -7 -65 -13 14 -20 140 -7 140 6 0 12 -32 14 -75z
m98 -96 c0 -9 -31 -21 -38 -14 -3 3 0 5 7 5 7 0 10 4 7 8 -3 5 1 9 9 9 8 0 15
-4 15 -8z m10 -50 c-10 -35 -20 -49 -20 -30 0 7 -17 20 -37 29 l-38 16 50 7
c28 3 51 7 52 7 1 1 -2 -12 -7 -29z"/>
<path d="M601 6854 c0 -11 3 -14 6 -6 3 7 2 16 -1 19 -3 4 -6 -2 -5 -13z"/>
<path d="M1968 6843 c7 -3 16 -2 19 1 4 3 -2 6 -13 5 -11 0 -14 -3 -6 -6z"/>
<path d="M1868 6823 c6 -2 18 -2 25 0 6 3 1 5 -13 5 -14 0 -19 -2 -12 -5z"/>
<path d="M590 6811 c0 -10 22 -31 33 -31 16 0 2 33 -15 36 -10 1 -18 -1 -18
-5z"/>
<path d="M1960 6810 c0 -5 5 -10 10 -10 6 0 10 5 10 10 0 6 -4 10 -10 10 -5 0
-10 -4 -10 -10z"/>
<path d="M1880 6800 c0 -5 5 -10 10 -10 6 0 10 5 10 10 0 6 -4 10 -10 10 -5 0
-10 -4 -10 -10z"/>
<path d="M4653 6739 c-73 -65 -96 -88 -62 -63 39 29 132 114 125 114 -3 0 -32
-23 -63 -51z"/>
<path d="M11226 6711 c-4 -46 -12 -95 -17 -108 -14 -37 9 -28 28 11 13 29 14
47 7 108 l-10 73 -8 -84z"/>
<path d="M11612 6769 c-31 -77 -34 -109 -14 -147 32 -62 47 -49 45 38 -1 41
-6 89 -11 105 l-9 30 -11 -26z"/>
<path d="M2018 6750 c-4 -28 -2 -30 26 -30 17 0 265 0 551 0 542 0 534 0 535
43 0 16 -33 17 -554 17 l-554 0 -4 -30z"/>
<path d="M3245 6765 c-3 -8 -7 -22 -10 -30 -3 -12 5 -15 36 -15 33 0 41 4 49
26 14 35 15 34 -30 34 -27 0 -42 -5 -45 -15z"/>
<path d="M3680 6773 c1 -23 41 -53 69 -53 29 0 30 1 20 30 -10 26 -16 30 -50
30 -21 0 -39 -3 -39 -7z"/>
<path d="M6630 6750 l0 -30 1244 -2 c1238 -3 1245 -3 1250 17 3 11 6 26 6 33
0 9 -257 12 -1250 12 l-1250 0 0 -30z"/>
<path d="M9245 6765 c-3 -8 -7 -22 -10 -30 -3 -12 5 -15 39 -15 27 0 43 5 43
13 0 6 4 20 8 30 6 15 1 17 -34 17 -28 0 -43 -5 -46 -15z"/>
<path d="M11750 6774 c-55 -17 -37 -107 23 -117 18 -3 43 -4 57 -3 27 3 38
-12 39 -54 1 -20 -1 -22 -10 -10 -9 13 -10 12 -5 -2 3 -10 -1 -35 -9 -57 -13
-37 -12 -39 7 -44 11 -3 17 -10 13 -16 -4 -7 8 -11 34 -11 30 0 41 4 41 15 0
11 12 15 48 15 53 0 63 -5 55 -26 -3 -9 -21 -14 -53 -14 -27 0 -51 -4 -54 -9
-9 -13 13 -18 72 -16 l53 2 -7 -58 c-11 -101 13 -160 53 -127 12 10 17 9 24
-5 17 -29 44 -16 54 26 6 24 5 27 -19 27 -19 0 -33 10 -52 40 -22 33 -25 44
-16 68 11 31 -6 172 -20 172 -12 0 -26 -34 -20 -49 3 -11 -1 -12 -19 -8 -13 4
-45 7 -71 7 -41 0 -48 3 -48 19 0 11 -7 26 -15 34 -7 8 -17 28 -21 43 -4 16
-11 35 -17 42 -7 9 -7 16 1 24 14 14 15 57 3 77 -9 14 -92 24 -121 15z m38
-58 c2 -10 -3 -16 -16 -16 -23 0 -46 25 -38 39 9 14 50 -3 54 -23z m72 3 c-13
-23 -50 -26 -50 -4 0 16 39 36 53 28 4 -2 2 -13 -3 -24z"/>
<path d="M12507 6773 c-13 -12 -7 -50 9 -64 14 -11 15 -9 8 27 -8 45 -8 46
-17 37z"/>
<path d="M3447 6749 c-22 -11 -36 -23 -33 -26 6 -7 176 -6 183 1 9 8 -45 37
-78 42 -23 3 -47 -3 -72 -17z"/>
<path d="M12018 6721 c-5 -18 -8 -50 -8 -70 1 -29 3 -33 11 -18 5 9 9 41 7 70
-3 49 -3 50 -10 18z"/>
<path d="M6190 6675 c0 -15 4 -24 10 -20 6 3 10 12 10 20 0 8 -4 17 -10 20 -6
4 -10 -5 -10 -20z"/>
<path d="M6340 6674 c0 -14 4 -23 10 -19 6 3 10 15 10 26 0 10 -4 19 -10 19
-5 0 -10 -12 -10 -26z"/>
<path d="M12810 6680 c-1 -8 -3 -40 -6 -71 -5 -50 -3 -59 18 -80 29 -29 43
-122 29 -180 -5 -19 -12 -55 -16 -81 l-6 -48 33 0 c19 0 44 7 57 16 22 16 24
16 33 0 5 -9 13 -16 18 -16 15 0 12 26 -5 40 -8 7 -15 17 -15 23 0 6 11 0 24
-12 l24 -23 7 59 c3 32 10 80 16 106 14 74 12 114 -8 121 -29 11 -41 -19 -48
-120 -4 -52 -11 -94 -15 -94 -7 0 -19 63 -43 225 -11 75 -13 80 -37 80 -19 0
-30 9 -42 35 -10 19 -18 28 -18 20z"/>
<path d="M12500 6666 c0 -8 12 -28 26 -43 24 -27 25 -27 19 -5 -9 30 -45 69
-45 48z"/>
<path d="M4525 6640 c-16 -11 -25 -20 -20 -20 10 0 64 39 55 40 -3 0 -18 -9
-35 -20z"/>
<path d="M11715 6620 c-4 -16 -12 -33 -19 -37 -27 -17 -26 -41 4 -51 16 -6 38
-20 49 -31 l22 -22 -7 28 c-4 16 -13 41 -21 56 -9 17 -12 40 -8 58 4 17 2 29
-3 29 -6 0 -13 -13 -17 -30z"/>
<path d="M12386 6628 c-4 -17 3 -31 24 -53 29 -30 39 -55 22 -55 -5 0 -17 9
-27 20 -25 28 -35 25 -35 -10 0 -16 5 -30 10 -30 6 0 10 -7 10 -15 0 -8 -6
-15 -14 -15 -9 0 -20 -31 -34 -97 -17 -84 -20 -91 -21 -53 -2 67 -10 88 -38
95 -14 3 -27 4 -29 2 -8 -8 23 -178 34 -189 15 -15 45 -1 38 17 -8 21 8 19 29
-5 15 -16 31 -20 87 -20 45 0 68 4 68 12 0 6 -7 48 -15 92 -15 78 -13 117 10
191 4 15 -3 25 -29 42 -20 13 -40 37 -47 58 -15 40 -34 46 -43 13z"/>
<path d="M4475 6610 c-3 -5 -33 -19 -66 -31 -33 -12 -58 -24 -56 -26 7 -7 115
37 127 52 7 8 10 15 7 15 -3 0 -8 -4 -12 -10z"/>
<path d="M1340 6571 c0 -16 6 -31 13 -34 7 -3 81 -2 165 1 149 5 152 5 152 27
0 31 -20 35 -187 35 l-143 0 0 -29z"/>
<path d="M2078 6588 c22 -8 42 -8 65 0 29 9 26 10 -33 10 -59 0 -62 -1 -32
-10z"/>
<path d="M2240 6587 c0 -7 -12 -20 -27 -29 -27 -17 -4 -17 454 -18 l481 0 -11
30 -11 30 -443 0 c-351 0 -443 -3 -443 -13z"/>
<path d="M3250 6587 c0 -31 27 -50 72 -51 l45 -1 -25 33 c-19 25 -32 32 -58
32 -21 0 -34 -5 -34 -13z"/>
<path d="M3420 6585 c7 -8 23 -15 35 -15 12 0 28 7 35 15 11 13 6 15 -35 15
-41 0 -46 -2 -35 -15z"/>
<path d="M3558 6570 c-20 -34 -13 -41 33 -35 18 2 40 -1 49 -8 13 -10 13 -10
2 5 -8 9 -10 27 -6 42 6 24 4 26 -27 26 -27 0 -37 -6 -51 -30z"/>
<path d="M6630 6570 c0 -23 5 -30 19 -30 11 0 22 6 25 13 5 10 7 10 12 0 4
-10 261 -13 1234 -13 l1228 0 -11 30 -11 30 -1248 0 -1248 0 0 -30z"/>
<path d="M9250 6587 c0 -31 28 -52 69 -52 23 0 41 2 41 3 0 2 -9 17 -21 33
-16 22 -28 29 -55 29 -21 0 -34 -5 -34 -13z"/>
<path d="M10940 6590 c0 -5 7 -10 16 -10 8 0 12 5 9 10 -3 6 -10 10 -16 10 -5
0 -9 -4 -9 -10z"/>
<path d="M3745 6580 c-3 -5 -1 -10 4 -10 6 0 11 5 11 10 0 6 -2 10 -4 10 -3 0
-8 -4 -11 -10z"/>
<path d="M10095 6553 c-56 -22 -102 -59 -121 -95 -22 -42 -15 -131 14 -187 12
-23 20 -46 17 -51 -7 -11 22 -40 41 -40 7 0 43 10 79 21 60 20 66 20 89 6 14
-10 31 -37 41 -68 16 -48 19 -51 31 -34 8 10 14 28 14 39 1 12 6 33 13 48 12
27 13 27 41 13 37 -20 49 -19 64 5 8 13 23 20 42 20 25 0 31 5 38 32 10 38 31
48 39 19 3 -12 9 -21 14 -21 5 0 6 -6 3 -13 -6 -17 25 -56 32 -39 3 6 9 10 13
7 5 -2 8 21 7 53 -1 55 0 57 24 54 l25 -3 -26 18 c-58 40 -74 74 -47 101 6 6
9 14 6 18 -11 10 -89 -42 -165 -109 -95 -84 -161 -103 -255 -75 -81 24 -115
112 -63 163 24 25 59 32 81 17 6 -4 14 -26 17 -50 6 -50 5 -47 34 -56 15 -5
28 0 43 16 45 48 6 164 -66 194 -42 18 -69 17 -119 -3z"/>
<path d="M4318 6543 c7 -3 16 -2 19 1 4 3 -2 6 -13 5 -11 0 -14 -3 -6 -6z"/>
<path d="M4278 6533 c7 -3 16 -2 19 1 4 3 -2 6 -13 5 -11 0 -14 -3 -6 -6z"/>
<path d="M11432 6523 c-5 -10 -8 -22 -6 -28 2 -5 10 -66 18 -134 9 -69 20
-129 25 -134 15 -15 41 0 41 24 0 21 1 21 25 -5 14 -15 35 -26 50 -26 l26 0
-2 137 c-2 133 -3 138 -28 161 l-26 24 -20 -129 c-23 -140 -27 -139 -45 7 -11
90 -22 120 -41 120 -5 0 -12 -8 -17 -17z"/>
<path d="M12173 6528 c-6 -7 -13 -30 -17 -50 -6 -31 -4 -38 9 -38 11 0 15 -11
15 -45 0 -51 -26 -65 -33 -17 -3 22 -4 20 -6 -10 -1 -29 3 -38 20 -43 13 -4
25 -2 29 6 11 17 24 185 15 198 -8 14 -20 14 -32 -1z"/>
<path d="M4200 6520 c-20 -6 -21 -8 -5 -8 11 0 29 3 40 8 25 11 -1 11 -35 0z"/>
<path d="M10565 6519 c-4 -6 -5 -12 -2 -15 2 -3 7 2 10 11 7 17 1 20 -8 4z"/>
<path d="M11786 6516 c3 -8 1 -24 -6 -35 -10 -19 -8 -21 21 -21 27 0 30 2 19
15 -7 8 -10 24 -7 35 4 15 0 20 -14 20 -12 0 -16 -5 -13 -14z"/>
<path d="M12256 6514 c-13 -33 -6 -54 19 -60 34 -8 36 -5 23 39 -12 39 -31 48
-42 21z"/>
<path d="M4148 6503 c7 -3 16 -2 19 1 4 3 -2 6 -13 5 -11 0 -14 -3 -6 -6z"/>
<path d="M3883 6452 c-40 -26 -73 -50 -73 -54 0 -4 4 -18 10 -32 l9 -25 85 57
c47 31 86 60 86 64 0 9 -30 38 -38 37 -4 0 -40 -22 -79 -47z"/>
<path d="M4068 6493 c6 -2 18 -2 25 0 6 3 1 5 -13 5 -14 0 -19 -2 -12 -5z"/>
<path d="M4008 6483 c7 -3 16 -2 19 1 4 3 -2 6 -13 5 -11 0 -14 -3 -6 -6z"/>
<path d="M11660 6470 c0 -5 10 -10 23 -10 18 0 19 2 7 10 -19 13 -30 13 -30 0z"/>
<path d="M13940 6139 l1 -241 29 -29 28 -29 174 0 c95 0 190 5 211 11 59 16
58 9 58 347 l0 182 -251 0 -250 0 0 -241z"/>
<path d="M14880 6246 c0 -98 3 -136 13 -139 9 -4 9 -8 -1 -15 -11 -7 -13 -34
-10 -111 4 -144 -3 -140 246 -140 106 0 200 3 208 6 38 14 44 54 44 286 l0
225 -32 7 c-18 5 -131 10 -250 12 l-218 4 0 -135z"/>
<path d="M12650 6098 c0 -261 0 -268 20 -268 20 0 20 7 20 268 0 261 0 268
-20 268 -20 0 -20 -7 -20 -268z"/>
<path d="M13291 6328 c-26 -9 -53 -58 -33 -58 4 0 12 10 17 23 9 20 18 22 87
25 76 3 78 2 84 -23 6 -25 24 -35 24 -12 -1 35 -29 50 -95 51 -35 1 -74 -2
-84 -6z"/>
<path d="M1991 6254 c-11 -13 -11 -15 4 -12 10 2 20 -2 22 -8 2 -6 -10 -8 -32
-6 -27 3 -36 0 -42 -14 -3 -11 -12 -22 -19 -27 -9 -5 -10 -16 -3 -40 5 -17 9
-55 9 -84 l0 -53 -76 1 c-43 1 -99 7 -125 13 -52 14 -60 11 -31 -10 15 -12 8
-13 -50 -14 -37 0 -69 3 -71 8 -4 5 -121 7 -238 2 -3 0 -6 -42 -5 -92 l1 -93
-86 3 -86 4 1 -39 c1 -32 5 -39 25 -41 13 -2 27 2 31 8 6 9 13 9 28 1 11 -6
60 -10 111 -8 85 2 105 7 81 22 -5 3 -10 14 -10 23 0 13 5 11 23 -10 l22 -27
238 -3 c223 -3 289 3 196 18 -46 8 -52 17 -41 58 6 24 14 29 45 32 20 2 45 7
54 12 13 8 11 11 -15 17 -34 7 -43 29 -17 39 13 5 15 26 11 131 -2 69 0 128 5
131 5 3 9 -26 9 -65 0 -38 3 -72 8 -74 4 -3 5 15 3 39 -2 26 1 44 7 44 6 0 12
-26 14 -57 3 -49 6 -58 23 -60 l20 -3 -20 9 c-13 6 -15 10 -5 10 11 1 11 4 2
13 -7 7 -12 28 -12 48 0 19 -9 54 -20 77 l-19 43 24 -2 c20 -2 24 -7 20 -28
-5 -23 -4 -22 9 5 14 30 14 29 21 -37 4 -36 4 -80 0 -97 -5 -22 -3 -31 6 -31
17 0 5 169 -16 209 -18 36 -16 35 -34 15z m-576 -442 c-8 -8 -65 50 -65 66 0
7 16 -3 35 -24 19 -20 33 -39 30 -42z m515 68 c-8 -5 -19 -10 -25 -10 -5 0 -3
5 5 10 8 5 20 10 25 10 6 0 3 -5 -5 -10z"/>
<path d="M1803 6232 c-3 -15 -13 -37 -21 -50 -8 -12 -12 -25 -8 -29 3 -4 -1
-17 -9 -30 -20 -30 -3 -30 18 0 13 18 16 19 16 5 1 -9 -4 -20 -10 -24 -6 -3
-9 -17 -6 -30 2 -14 0 -24 -7 -23 -6 1 -20 1 -31 0 -19 -2 -19 -2 -2 -12 43
-25 157 101 148 164 -3 19 15 23 22 5 4 -9 6 -8 6 3 1 8 13 20 29 26 l27 11
-27 1 c-16 1 -28 -3 -28 -9 0 -5 -10 -10 -22 -10 -13 0 -30 -5 -38 -10 -13 -8
-12 -10 3 -10 21 0 22 -23 1 -41 -13 -10 -17 -10 -25 2 -4 8 -6 23 -4 34 4 17
3 16 -6 -2 -7 -13 -16 -23 -21 -23 -4 0 -8 -8 -9 -17 0 -10 -3 -13 -5 -7 -6
13 23 84 34 83 15 -3 65 1 61 5 -2 2 -21 6 -41 9 -35 5 -38 4 -45 -21z m55
-83 c9 -3 -1 -20 -27 -48 -26 -28 -41 -38 -41 -28 0 8 5 17 12 19 7 3 13 18
14 34 2 45 3 47 17 37 6 -6 18 -12 25 -14z"/>
<path d="M1835 6129 c-4 -6 -5 -12 -2 -15 2 -3 7 2 10 11 7 17 1 20 -8 4z"/>
<path d="M13308 6243 c-11 -3 -18 -14 -18 -29 0 -21 5 -24 35 -24 32 0 35 2
35 30 0 31 -9 34 -52 23z"/>
<path d="M13370 6221 c0 -29 2 -31 35 -31 31 0 35 3 35 25 0 14 -6 25 -12 25
-7 0 -23 3 -35 6 -20 6 -23 3 -23 -25z"/>
<path d="M13238 6214 c-37 -19 -35 -24 7 -24 28 0 35 4 35 20 0 24 -6 24 -42
4z"/>
<path d="M13450 6210 c0 -16 7 -20 30 -20 37 0 39 13 5 28 -34 16 -35 15 -35
-8z"/>
<path d="M1840 6190 c0 -5 7 -10 16 -10 8 0 12 5 9 10 -3 6 -10 10 -16 10 -5
0 -9 -4 -9 -10z"/>
<path d="M10610 6175 c0 -5 5 -17 10 -25 5 -8 10 -10 10 -5 0 6 -5 17 -10 25
-5 8 -10 11 -10 5z"/>
<path d="M13162 6150 c-15 -20 -22 -44 -22 -76 0 -43 2 -46 23 -40 12 3 27 6
33 6 6 0 11 12 10 27 -1 22 -7 29 -31 34 l-30 7 28 1 c24 1 27 5 27 36 0 43
-10 44 -38 5z"/>
<path d="M13219 6178 c-5 -16 -2 -68 4 -68 4 0 7 7 7 15 0 19 9 19 32 -2 17
-15 18 -14 18 20 0 34 -2 37 -30 37 -16 0 -30 -1 -31 -2z"/>
<path d="M13290 6145 c0 -19 5 -35 10 -35 22 0 60 33 60 51 0 15 -7 19 -35 19
-33 0 -35 -2 -35 -35z"/>
<path d="M13370 6168 c1 -38 13 -55 40 -56 25 -1 27 2 25 31 -2 28 -6 32 -34
35 -21 2 -31 -1 -31 -10z"/>
<path d="M13463 6174 c-7 -3 -13 -19 -13 -35 0 -26 4 -29 30 -29 25 0 30 4 30
25 0 14 1 28 3 33 3 9 -33 13 -50 6z"/>
<path d="M13523 6145 c-1 -33 1 -35 33 -35 19 0 34 4 34 8 0 9 -53 62 -61 62
-3 0 -5 -16 -6 -35z"/>
<path d="M2010 6151 c0 -5 5 -13 10 -16 6 -3 10 -2 10 4 0 5 -4 13 -10 16 -5
3 -10 2 -10 -4z"/>
<path d="M1748 6136 c-20 -15 -23 -26 -8 -26 5 0 14 9 20 20 12 23 11 24 -12
6z"/>
<path d="M1553 6101 c-10 -16 -9 -20 12 -25 13 -3 30 -3 39 0 8 3 23 1 32 -4
13 -7 0 -9 -44 -7 -41 2 -60 -1 -55 -8 4 -6 0 -8 -10 -4 -10 3 -17 2 -17 -3 0
-9 13 -13 72 -24 10 -2 15 1 12 9 -5 12 48 23 126 26 21 1 22 2 7 11 -10 5
-26 7 -36 3 -11 -3 -22 -2 -25 3 -10 17 48 21 72 5 13 -8 26 -12 29 -10 2 3
-6 13 -20 21 -20 14 -32 15 -75 5 -43 -9 -55 -8 -74 5 -28 20 -31 20 -45 -3z
m47 -11 c0 -5 -4 -10 -9 -10 -6 0 -13 5 -16 10 -3 6 1 10 9 10 9 0 16 -4 16
-10z"/>
<path d="M13219 6080 c-7 -34 -1 -50 17 -43 9 3 11 9 5 17 -5 6 -11 20 -13 31
-3 17 -5 17 -9 -5z"/>
<path d="M13290 6079 c0 -11 5 -17 10 -14 6 3 10 13 10 21 0 8 -4 14 -10 14
-5 0 -10 -9 -10 -21z"/>
<path d="M13370 6071 c0 -36 6 -41 42 -34 22 4 26 10 25 32 -2 22 -8 27 -35
29 -30 3 -32 1 -32 -27z"/>
<path d="M13450 6067 l0 -34 70 1 70 0 0 34 c0 32 -2 33 -32 30 -27 -2 -33 -7
-32 -25 0 -13 -3 -23 -8 -23 -4 0 -8 11 -8 25 0 21 -5 25 -30 25 -27 0 -30 -3
-30 -33z"/>
<path d="M13117 6077 c-11 -29 -9 -53 4 -40 6 6 9 21 7 34 -3 21 -4 22 -11 6z"/>
<path d="M13600 6063 c0 -12 5 -25 10 -28 13 -8 13 15 0 35 -8 12 -10 11 -10
-7z"/>
<path d="M10650 6066 c0 -2 8 -10 18 -17 15 -13 16 -12 3 4 -13 16 -21 21 -21
13z"/>
<path d="M13346 6051 c-4 -7 -5 -15 -2 -18 9 -9 19 4 14 18 -4 11 -6 11 -12 0z"/>
<path d="M1956 6004 c-4 -9 -4 -19 -1 -22 2 -3 7 3 11 12 4 9 4 19 1 22 -2 3
-7 -3 -11 -12z"/>
<path d="M1983 5992 c1 -18 7 -38 14 -44 19 -15 16 -65 -4 -77 -16 -9 -16 -12
-3 -22 12 -9 11 -10 -5 -4 -45 16 -60 16 -33 0 32 -18 49 -45 44 -71 -4 -18 7
-19 267 -16 l272 3 37 36 c21 20 41 34 45 30 4 -4 -3 -14 -15 -23 -12 -8 -26
-23 -31 -32 -8 -16 5 -17 180 -17 104 0 189 2 189 5 0 4 -43 48 -95 100 -93
91 -95 93 -115 75 -12 -11 -20 -13 -20 -6 0 6 7 14 15 17 22 9 18 26 -10 47
-23 17 -53 18 -367 18 -187 -1 -343 -3 -346 -6 -3 -3 4 -5 15 -5 11 0 22 -3
26 -6 7 -7 -14 -44 -25 -44 -13 0 -9 28 5 34 6 4 2 4 -10 2 -16 -3 -23 2 -26
18 -3 11 -4 6 -4 -12z m717 -86 c0 -10 -63 -66 -68 -61 -6 6 48 65 60 65 4 0
8 -2 8 -4z"/>
<path d="M2720 6004 c0 -20 31 -25 53 -9 23 16 22 17 -23 19 -17 0 -30 -4 -30
-10z"/>
<path d="M3287 6012 c-438 -2 -480 -4 -497 -20 -10 -9 -20 -21 -21 -27 -2 -5
42 -54 98 -108 l100 -98 391 -2 c215 -1 384 2 376 6 -31 17 -14 44 33 51 38 6
52 190 15 198 -10 1 -232 2 -495 0z"/>
<path d="M6622 5887 l3 -128 203 0 c112 -1 205 1 208 4 3 2 50 48 105 102 66
64 98 103 94 112 -4 11 -1 13 11 9 9 -4 23 -1 30 5 9 7 14 8 14 1 0 -6 -5 -12
-11 -14 -6 -2 5 -21 25 -42 20 -22 34 -42 31 -45 -4 -3 -22 11 -41 32 l-35 37
-95 -93 c-51 -51 -94 -97 -94 -103 0 -5 78 -9 190 -9 105 0 190 2 190 6 0 3
-5 10 -12 17 -6 6 -9 14 -6 18 4 3 16 -4 27 -15 21 -21 27 -21 548 -21 l527 0
38 37 c21 20 41 34 45 30 4 -4 -3 -14 -15 -23 -12 -8 -26 -23 -31 -32 -8 -16
5 -17 180 -17 104 0 189 2 189 5 0 4 -43 48 -95 100 -93 91 -95 93 -115 75
-11 -10 -20 -13 -20 -7 0 6 8 15 18 21 16 9 15 12 -8 36 l-26 25 -728 1 c-401
0 -730 -1 -731 -3 -2 -2 -141 -1 -310 2 l-306 5 3 -128z m2078 19 c0 -10 -63
-66 -68 -61 -6 6 48 65 60 65 4 0 8 -2 8 -4z m-1310 -57 c17 -17 28 -34 25
-37 -6 -6 -65 48 -65 60 0 13 7 9 40 -23z"/>
<path d="M8720 6003 c0 -20 39 -26 56 -9 17 18 17 18 -26 20 -17 0 -30 -4 -30
-11z"/>
<path d="M13100 5990 c0 -20 5 -30 15 -30 10 0 15 10 15 30 0 20 -5 30 -15 30
-10 0 -15 -10 -15 -30z"/>
<path d="M13140 5990 c0 -30 1 -30 53 -30 53 0 54 0 54 30 0 38 -22 39 -36 3
l-11 -28 4 28 c3 25 1 27 -30 27 -31 0 -34 -3 -34 -30z"/>
<path d="M13383 6013 c9 -2 25 -2 35 0 9 3 1 5 -18 5 -19 0 -27 -2 -17 -5z"/>
<path d="M13440 6016 c0 -2 16 -16 35 -30 l35 -27 0 30 c0 29 -3 31 -35 31
-19 0 -35 -2 -35 -4z"/>
<path d="M13520 5990 c0 -28 3 -30 35 -30 32 0 35 2 35 30 0 28 -3 30 -35 30
-32 0 -35 -2 -35 -30z"/>
<path d="M13600 5990 c0 -20 5 -30 15 -30 16 0 19 17 9 44 -10 26 -24 18 -24
-14z"/>
<path d="M8783 5985 l-22 -25 101 -98 c55 -53 107 -99 116 -102 10 -3 102 -3
206 0 l190 5 1 123 1 122 -285 0 -286 0 -22 -25z"/>
<path d="M5550 5940 c0 -45 -4 -55 -41 -95 -41 -44 -48 -77 -19 -83 16 -3 73
42 64 50 -3 3 6 14 19 25 19 14 24 26 20 45 -4 23 -2 26 16 21 31 -8 27 19 -8
56 -41 43 -51 40 -51 -19z"/>
<path d="M10218 5962 c-7 -10 -34 -32 -59 -50 -44 -29 -46 -33 -42 -69 2 -21
11 -48 19 -61 13 -20 22 -23 67 -20 46 3 52 6 55 26 3 17 -2 25 -18 29 -19 5
-21 11 -16 44 3 20 9 45 13 55 5 13 3 15 -7 9 -9 -5 -7 0 3 16 9 13 17 27 17
31 0 14 -19 8 -32 -10z"/>
<path d="M13140 5912 c0 -31 2 -33 32 -30 28 3 32 7 32 32 0 26 -4 29 -32 30
-30 1 -32 -1 -32 -32z"/>
<path d="M13233 5942 c-11 -7 -16 -26 -14 -49 0 -8 14 -13 32 -13 28 0 29 1
14 16 -9 9 -14 23 -11 30 6 16 -6 25 -21 16z"/>
<path d="M13524 5941 c-2 -2 -4 -17 -4 -33 0 -25 3 -28 35 -28 33 0 35 2 35
33 0 29 -3 32 -31 32 -17 0 -33 -2 -35 -4z"/>
<path d="M11828 5928 c17 -17 15 -33 -3 -18 -13 11 -15 6 -15 -34 0 -34 4 -46
15 -46 9 0 15 -9 15 -25 0 -16 -6 -25 -15 -25 -8 0 -15 7 -15 15 0 18 -43 37
-65 29 -12 -5 -15 2 -15 29 0 20 -3 43 -6 52 -6 14 -8 14 -31 -1 -14 -9 -22
-11 -19 -5 11 18 -20 13 -35 -6 -11 -13 -11 -17 -1 -20 6 -3 12 -13 12 -24 0
-15 7 -19 35 -19 28 0 35 -4 35 -20 0 -11 -5 -20 -11 -20 -6 0 -9 -5 -7 -12 4
-12 217 -21 236 -9 8 4 3 16 -14 34 -19 21 -31 26 -49 21 -23 -6 -25 -3 -26
32 -1 22 0 49 1 62 1 15 -4 22 -16 22 -14 0 -15 -3 -6 -12z"/>
<path d="M12551 5929 c-1 -11 -11 -16 -30 -17 -40 -1 -71 -19 -71 -41 0 -29
20 -38 94 -44 41 -3 63 -1 55 4 -11 7 -11 9 3 9 9 0 19 -6 21 -12 3 -8 6 -6 6
5 1 17 -8 21 -41 18 -12 -2 -19 8 -23 36 -8 48 -13 63 -14 42z"/>
<path d="M13100 5910 c0 -20 5 -30 15 -30 10 0 15 10 15 30 0 20 -5 30 -15 30
-10 0 -15 -10 -15 -30z"/>
<path d="M13600 5910 c0 -20 5 -30 15 -30 10 0 15 10 15 30 0 20 -5 30 -15 30
-10 0 -15 -10 -15 -30z"/>
<path d="M11937 5916 c-4 -10 -7 -35 -7 -55 0 -36 1 -38 28 -33 38 6 63 40 49
64 -7 10 -22 18 -34 18 -12 0 -23 5 -25 12 -3 7 -7 5 -11 -6z"/>
<path d="M12777 5903 c-4 -3 -7 -17 -7 -29 0 -19 -5 -22 -27 -21 -20 2 -28 -3
-30 -18 -3 -20 -3 -20 5 0 9 19 9 19 20 0 6 -11 12 -14 12 -8 0 9 7 10 25 3
20 -8 27 -5 40 13 19 27 19 32 -1 51 -17 17 -27 20 -37 9z"/>
<path d="M5155 5835 c-37 -33 -44 -35 -99 -33 -57 3 -60 2 -67 -24 l-7 -28 75
0 c56 0 79 4 91 16 10 11 17 13 20 5 6 -19 29 -12 36 12 8 31 7 87 -1 87 -5 0
-26 -16 -48 -35z"/>
<path d="M13100 5840 l0 -30 90 0 c82 0 110 9 78 24 -10 5 -10 7 0 12 22 10
12 24 -18 24 -25 0 -30 -4 -30 -25 0 -14 -5 -25 -10 -25 -6 0 -8 11 -6 25 4
23 2 25 -30 25 -30 0 -34 -3 -34 -26 0 -14 -4 -23 -9 -20 -5 3 -7 15 -4 26 4
14 0 20 -11 20 -11 0 -16 -9 -16 -30z"/>
<path d="M13493 5863 c-7 -2 -13 -13 -13 -23 0 -10 -8 -21 -17 -23 -10 -3 -3
-5 15 -6 29 -1 32 2 32 29 0 17 -1 30 -2 29 -2 0 -9 -3 -15 -6z"/>
<path d="M13527 5863 c-4 -3 -7 -17 -7 -30 0 -20 5 -23 35 -23 32 0 35 2 35
30 0 26 -4 30 -28 30 -16 0 -32 -3 -35 -7z"/>
<path d="M13600 5840 c0 -20 5 -30 15 -30 10 0 15 10 15 30 0 20 -5 30 -15 30
-10 0 -15 -10 -15 -30z"/>
<path d="M11241 5836 c-11 -13 -10 -17 3 -22 22 -8 30 1 19 21 -9 15 -11 15
-22 1z"/>
<path d="M13332 5830 c-11 -18 -10 -20 8 -20 13 0 20 7 20 20 0 11 -3 20 -8
20 -4 0 -13 -9 -20 -20z"/>
<path d="M707 5818 c-9 -7 -18 -24 -19 -38 -3 -24 -1 -25 70 -28 l72 -3 0 30
c0 20 -7 34 -19 41 -27 14 -84 13 -104 -2z"/>
<path d="M13378 5813 c6 -2 18 -2 25 0 6 3 1 5 -13 5 -14 0 -19 -2 -12 -5z"/>
<path d="M12550 5795 c-10 -12 -10 -15 3 -15 8 0 17 7 21 15 3 8 2 15 -3 15
-5 0 -14 -7 -21 -15z"/>
<path d="M12636 5795 c8 -20 60 -20 68 0 3 9 0 15 -10 15 -8 0 -12 -4 -9 -10
8 -13 -11 -13 -35 0 -16 8 -18 8 -14 -5z"/>
<path d="M12778 5783 c7 -3 16 -2 19 1 4 3 -2 6 -13 5 -11 0 -14 -3 -6 -6z"/>
<path d="M3785 5760 c-16 -7 -17 -9 -3 -9 9 -1 20 4 23 9 7 11 7 11 -20 0z"/>
<path d="M0 5415 l0 -55 1160 0 1160 0 0 -190 0 -190 -145 -143 c-80 -79 -145
-147 -145 -151 0 -3 137 -6 305 -6 168 0 305 3 305 7 0 4 -63 71 -140 148
l-139 140 -2 190 -1 190 2596 3 2596 2 0 -140 0 -140 165 0 c117 0 164 3 163
11 -2 6 2 13 8 16 7 2 11 -50 13 -167 l2 -171 -463 3 -464 3 25 -27 24 -28
439 0 439 0 -3 -56 -3 -56 -233 2 c-149 0 -239 -3 -252 -10 -11 -6 -26 -7 -33
-3 -18 12 -210 13 -224 1 -9 -7 -18 -7 -27 2 -9 7 -40 10 -78 9 l-63 -3 -3 52
c-2 41 1 54 13 58 13 5 9 13 -20 40 -33 30 -65 36 -65 12 0 -5 -36 -46 -80
-89 -45 -45 -77 -85 -74 -91 4 -6 3 -8 -3 -5 -15 9 -86 -60 -77 -74 4 -7 3 -9
-4 -5 -6 3 -40 -23 -75 -59 -63 -63 -66 -65 -116 -65 l-51 0 0 -127 0 -127
-38 -45 c-70 -86 -68 -81 -20 -64 148 53 342 4 411 -103 12 -18 28 -34 36 -34
12 0 12 3 -1 18 -8 9 -53 65 -100 123 l-87 106 -2 137 -2 138 147 146 148 147
-5 -45 c-2 -25 -8 -54 -12 -66 -10 -31 20 -58 54 -49 14 4 68 10 119 12 83 4
113 14 80 26 -7 2 -10 8 -6 12 5 5 16 -2 27 -13 15 -19 29 -22 86 -22 57 0 71
3 86 22 11 11 22 18 27 13 4 -4 1 -10 -5 -12 -49 -17 20 -23 284 -23 208 0
307 -4 330 -12 27 -10 38 -10 53 0 11 7 36 12 55 12 l35 0 0 265 0 265 175 0
175 0 0 140 0 140 2585 0 2585 0 0 -187 0 -188 -152 -152 -153 -153 56 0 c38
0 61 5 69 15 7 8 20 15 29 15 13 0 13 -2 2 -9 -7 -5 -9 -11 -5 -13 15 -8 474
-8 474 0 0 4 -53 60 -118 125 l-118 117 -29 -24 c-16 -14 -31 -23 -34 -20 -3
3 8 16 24 29 l30 23 -22 24 c-22 23 -23 31 -23 211 l0 187 1160 0 1160 0 0 55
0 55 -8000 0 -8000 0 0 -55z m8140 -69 c0 -10 -63 -66 -68 -61 -6 6 48 65 60
65 4 0 8 -2 8 -4z m-80 -80 c0 -10 -63 -66 -68 -61 -6 6 48 65 60 65 4 0 8 -2
8 -4z m-80 -80 c0 -10 -63 -66 -68 -61 -6 6 48 65 60 65 4 0 8 -2 8 -4z m5654
-348 c-16 -18 -30 -35 -31 -37 -2 -2 -6 -1 -10 2 -8 8 46 67 61 67 5 0 -3 -15
-20 -32z m-54 -52 c0 -10 -63 -66 -68 -61 -6 6 48 65 60 65 4 0 8 -2 8 -4z
m-6036 -40 c-21 -15 -30 -14 -19 3 3 6 14 11 23 11 13 0 13 -2 -4 -14z"/>
<path d="M4660 4228 l0 -842 22 21 c13 11 35 31 51 43 l27 24 0 749 0 750 -41
-42 c-22 -24 -43 -41 -46 -38 -3 3 16 26 41 52 39 39 46 51 46 85 l0 40 -50 0
-49 0 -1 -842z"/>
<path d="M11230 4509 l0 -561 48 51 47 51 -3 510 -2 510 -45 0 -45 0 0 -561z"/>
<path d="M1227 4923 c-20 -19 9 -23 178 -23 158 0 185 2 185 15 0 13 -26 15
-178 15 -98 0 -182 -3 -185 -7z"/>
<path d="M161 4828 l-1 -48 93 2 92 2 -87 3 c-68 3 -88 7 -88 18 0 11 20 15
88 18 l87 3 -87 2 c-81 2 -87 3 -91 25 -2 12 -5 1 -6 -25z"/>
<path d="M258 4863 c6 -2 18 -2 25 0 6 3 1 5 -13 5 -14 0 -19 -2 -12 -5z"/>
<path d="M348 4845 c4 -25 6 -25 98 -25 77 0 94 -3 94 -15 0 -12 -17 -15 -89
-15 -62 0 -91 4 -94 13 -3 7 -6 5 -6 -5 -1 -17 20 -18 299 -18 257 0 299 2
288 14 -7 8 -14 10 -16 5 -2 -5 -44 -9 -93 -9 -71 0 -89 3 -89 15 0 11 18 15
83 18 l82 3 -82 2 c-64 2 -83 5 -83 16 0 8 10 17 23 19 12 2 -66 4 -173 4
-107 -1 -162 -3 -122 -4 55 -3 72 -7 72 -18 0 -12 -18 -15 -90 -15 -83 0 -90
1 -90 20 0 11 -4 20 -9 20 -4 0 -6 -11 -3 -25z m382 0 c0 -12 -17 -15 -90 -15
-73 0 -90 3 -90 15 0 12 17 15 90 15 73 0 90 -3 90 -15z m0 -40 c0 -12 -17
-15 -90 -15 -73 0 -90 3 -90 15 0 12 17 15 90 15 73 0 90 -3 90 -15z"/>
<path d="M818 4863 c6 -2 18 -2 25 0 6 3 1 5 -13 5 -14 0 -19 -2 -12 -5z"/>
<path d="M908 4863 c6 -2 18 -2 25 0 6 3 1 5 -13 5 -14 0 -19 -2 -12 -5z"/>
<path d="M983 4863 c15 -2 37 -2 50 0 12 2 0 4 -28 4 -27 0 -38 -2 -22 -4z"/>
<path d="M1088 4863 c12 -2 22 -11 22 -19 0 -19 -176 -21 -183 -1 -3 7 -6 5
-6 -5 -1 -16 10 -18 94 -18 77 0 95 -3 95 -15 0 -11 -18 -15 -77 -18 -43 -1
35 -3 172 -3 138 0 219 2 180 3 -39 2 -73 9 -77 16 -6 9 -8 9 -8 0 0 -10 -25
-13 -90 -13 -72 0 -90 3 -90 15 0 11 18 15 83 18 l82 3 -82 2 c-65 2 -83 5
-83 16 0 10 14 16 43 19 25 2 13 4 -28 4 -38 0 -60 -2 -47 -4z"/>
<path d="M1218 4863 c7 -3 16 -2 19 1 4 3 -2 6 -13 5 -11 0 -14 -3 -6 -6z"/>
<path d="M1273 4863 c23 -4 28 -9 24 -24 -5 -18 0 -19 76 -17 l82 2 -72 3
c-54 3 -73 8 -73 18 0 7 8 16 18 18 9 3 -5 5 -33 4 -28 0 -37 -2 -22 -4z"/>
<path d="M1398 4863 c23 -2 61 -2 85 0 23 2 4 4 -43 4 -47 0 -66 -2 -42 -4z"/>
<path d="M1538 4863 c6 -2 18 -2 25 0 6 3 1 5 -13 5 -14 0 -19 -2 -12 -5z"/>
<path d="M1608 4863 c6 -2 18 -2 25 0 6 3 1 5 -13 5 -14 0 -19 -2 -12 -5z"/>
<path d="M1493 4823 c20 -2 54 -2 75 0 20 2 3 4 -38 4 -41 0 -58 -2 -37 -4z"/>
<path d="M1623 4823 c9 -2 23 -2 30 0 6 3 -1 5 -18 5 -16 0 -22 -2 -12 -5z"/>
<path d="M1472 4794 c-11 -12 -5 -14 40 -12 41 1 45 2 18 5 -19 3 -37 8 -40
13 -3 4 -11 2 -18 -6z"/>
<path d="M1598 4783 c12 -2 32 -2 45 0 12 2 2 4 -23 4 -25 0 -35 -2 -22 -4z"/>
<path d="M824 4136 c-76 -35 -142 -128 -110 -155 11 -9 15 -7 20 14 9 37 65
96 111 116 165 75 331 -78 280 -258 -26 -89 -137 -157 -225 -138 -27 6 -31 4
-28 -12 2 -13 14 -19 43 -21 133 -11 255 103 255 237 0 60 -32 147 -50 136 -5
-3 -7 0 -5 8 7 18 -40 59 -93 80 -61 24 -137 22 -198 -7z"/>
<path d="M1600 3925 l0 -235 170 0 170 0 0 235 0 235 -170 0 -170 0 0 -235z
m320 0 l0 -216 -152 3 -153 3 -2 200 c-2 110 -1 206 2 213 3 9 44 12 155 12
l150 0 0 -215z"/>
<path d="M1747 3763 c-4 -3 -7 -11 -7 -17 0 -6 5 -5 12 2 6 6 9 14 7 17 -3 3
-9 2 -12 -2z"/>
<path d="M1780 3755 c0 -8 4 -15 10 -15 5 0 7 7 4 15 -4 8 -8 15 -10 15 -2 0
-4 -7 -4 -15z"/>
<path d="M2097 4153 c-7 -14 -8 -220 -1 -257 l6 -36 229 0 229 0 0 150 0 150
-229 0 c-127 0 -232 -3 -234 -7z m440 -17 c4 -3 5 -52 4 -154 l-1 -112 -212 2
-213 3 0 130 0 130 160 5 c129 5 253 3 262 -4z"/>
<path d="M2480 3940 c0 -5 5 -10 11 -10 5 0 7 5 4 10 -3 6 -8 10 -11 10 -2 0
-4 -4 -4 -10z"/>
<path d="M2720 3925 l0 -235 170 0 170 0 0 235 0 235 -170 0 -170 0 0 -235z
m320 0 l0 -216 -152 3 -153 3 -2 200 c-2 110 -1 206 2 213 3 9 44 12 155 12
l150 0 0 -215z"/>
<path d="M2867 3763 c-4 -3 -7 -11 -7 -17 0 -6 5 -5 12 2 6 6 9 14 7 17 -3 3
-9 2 -12 -2z"/>
<path d="M2900 3755 c0 -8 4 -15 10 -15 5 0 7 7 4 15 -4 8 -8 15 -10 15 -2 0
-4 -7 -4 -15z"/>
<path d="M7924 4147 c-119 -46 -186 -193 -140 -309 55 -142 229 -202 353 -122
157 102 147 336 -18 419 -54 28 -140 33 -195 12z m157 -28 c84 -28 142 -121
135 -214 -7 -90 -55 -151 -141 -180 -111 -37 -228 23 -265 138 -6 21 -9 44 -6
52 3 8 2 15 -3 15 -18 0 23 92 58 131 55 61 143 84 222 58z"/>
<path d="M8039 3953 c-13 -16 -12 -17 4 -4 16 13 21 21 13 21 -2 0 -10 -8 -17
-17z"/>
<path d="M7828 3923 c7 -3 16 -2 19 1 4 3 -2 6 -13 5 -11 0 -14 -3 -6 -6z"/>
<path d="M8178 3923 c7 -3 16 -2 19 1 4 3 -2 6 -13 5 -11 0 -14 -3 -6 -6z"/>
<path d="M13563 4140 c-24 -11 -43 -25 -43 -31 0 -7 -3 -9 -6 -6 -12 12 -62
-56 -78 -106 -21 -65 -20 -95 4 -160 38 -102 111 -150 225 -151 59 -1 77 3
117 27 89 52 138 156 119 249 -14 65 -25 85 -75 134 -65 65 -175 83 -263 44z
m98 -37 l2 -28 4 28 c5 31 10 32 66 15 54 -16 112 -74 128 -129 7 -24 18 -47
24 -51 5 -4 -6 -8 -25 -9 -24 -1 -28 -3 -12 -6 27 -5 29 -33 3 -88 -31 -68
-78 -105 -148 -118 -30 -6 -33 -4 -34 21 l-2 27 -4 -27 c-5 -33 -6 -33 -64
-13 -69 24 -108 62 -129 127 -37 111 15 225 120 267 48 19 70 14 71 -16z"/>
<path d="M13662 3982 l-2 -63 25 18 c13 10 25 22 25 27 0 5 -9 1 -19 -8 -19
-18 -20 -17 -24 35 l-3 54 -2 -63z"/>
<path d="M4920 4029 c-40 -16 -80 -79 -50 -79 6 0 10 9 10 19 0 24 36 51 66
51 36 0 54 -11 70 -42 19 -36 29 -32 14 6 -6 16 -24 33 -45 41 -19 8 -36 15
-37 14 -2 0 -14 -5 -28 -10z"/>
<path d="M3770 4021 c0 -5 8 -12 18 -15 9 -3 25 -18 34 -33 12 -20 18 -23 18
-11 0 18 -21 42 -51 58 -12 7 -19 7 -19 1z"/>
<path d="M5325 4020 l-60 -7 73 -1 c47 -1 71 2 67 8 -3 6 -9 9 -13 8 -4 -1
-34 -4 -67 -8z"/>
<path d="M3335 4010 c-4 -6 20 -10 65 -10 45 0 69 4 65 10 -3 6 -33 10 -65 10
-32 0 -62 -4 -65 -10z"/>
<path d="M3700 4010 c-8 -5 -11 -12 -7 -16 4 -4 15 0 24 9 18 18 8 23 -17 7z"/>
<path d="M11267 3971 l-37 -39 2 -739 3 -738 42 45 43 45 0 733 c0 402 -3 732
-7 732 -5 -1 -25 -18 -46 -39z"/>
<path d="M956 3953 c-6 -14 -5 -15 5 -6 7 7 10 15 7 18 -3 3 -9 -2 -12 -12z"/>
<path d="M925 3930 c-3 -5 -1 -10 4 -10 6 0 11 5 11 10 0 6 -2 10 -4 10 -3 0
-8 -4 -11 -10z"/>
<path d="M3512 3910 c2 -28 -16 -60 -34 -60 -5 0 -8 6 -7 13 7 54 3 57 -71 57
l-70 0 0 -40 0 -40 74 0 c70 0 75 -1 78 -22 2 -18 11 -24 38 -26 l34 -4 -24
20 c-24 19 -24 21 -7 40 10 10 19 29 22 41 2 11 6 25 9 30 3 5 -5 11 -19 13
-22 5 -25 2 -23 -22z m-96 -14 c18 -19 18 -32 -1 -40 -18 -7 -45 2 -45 15 0 9
21 38 28 39 2 0 10 -6 18 -14z"/>
<path d="M5154 3916 c4 -16 0 -29 -14 -41 -21 -19 -28 -41 -10 -30 6 3 10 2
10 -4 0 -5 -4 -13 -10 -16 -23 -14 -7 -25 40 -25 44 0 50 3 56 24 4 17 0 32
-15 47 -14 15 -19 30 -15 46 5 20 2 23 -21 23 -24 0 -26 -3 -21 -24z m28 -34
c-9 -3 -9 -9 -1 -23 5 -11 14 -17 20 -14 5 4 9 4 9 1 0 -8 -31 -36 -39 -36
-10 0 -33 51 -26 58 3 3 5 0 5 -6 0 -7 5 -12 11 -12 5 0 8 4 5 9 -9 14 5 42
17 34 8 -5 7 -8 -1 -11z"/>
<path d="M5470 3929 c0 -6 5 -20 11 -32 7 -12 8 -19 4 -14 -14 12 -45 -25 -45
-55 0 -27 2 -28 49 -28 44 0 49 3 53 24 3 16 -3 33 -18 50 -14 14 -20 28 -14
31 20 12 10 35 -15 35 -14 0 -25 -5 -25 -11z m37 -85 c3 -8 0 -21 -7 -27 -10
-9 -14 -9 -17 1 -3 6 -9 9 -15 6 -6 -4 -5 2 1 15 14 25 29 27 38 5z"/>
<path d="M5580 3925 c0 -8 5 -15 11 -15 6 0 1 -13 -10 -29 -12 -16 -21 -41
-21 -56 0 -25 2 -26 48 -23 40 3 47 6 50 25 2 12 -6 32 -17 44 -14 15 -19 30
-15 46 5 20 2 23 -20 23 -16 0 -26 -6 -26 -15z m43 -74 c12 -2 8 -29 -5 -33
-21 -8 -38 2 -38 22 0 12 6 17 18 15 9 -2 20 -4 25 -4z"/>
<path d="M5704 3916 c3 -14 1 -28 -4 -31 -6 -4 -8 -11 -4 -16 3 -5 0 -8 -8 -7
-8 2 -13 -7 -13 -27 0 -29 2 -30 48 -33 45 -3 47 -2 47 23 0 15 -9 40 -21 56
-11 16 -16 29 -10 29 6 0 11 7 11 15 0 9 -10 15 -26 15 -23 0 -25 -3 -20 -24z
m31 -81 c0 -10 -5 -20 -11 -22 -13 -4 -27 24 -18 38 9 15 29 4 29 -16z"/>
<path d="M6409 3926 c-19 -7 -46 -20 -60 -29 -22 -16 -15 -17 156 -17 98 0
175 4 170 8 -6 5 -33 18 -62 30 -59 25 -147 28 -204 8z"/>
<path d="M1098 3923 c7 -3 16 -2 19 1 4 3 -2 6 -13 5 -11 0 -14 -3 -6 -6z"/>
<path d="M5270 3885 c0 -32 2 -35 30 -35 17 0 30 5 30 10 0 6 -4 10 -9 10 -5
0 -11 9 -14 19 -3 14 -1 18 9 14 8 -3 14 0 14 6 0 6 -13 11 -30 11 -28 0 -30
-3 -30 -35z"/>
<path d="M5350 3911 c0 -5 7 -11 15 -15 8 -3 15 -10 15 -16 0 -5 -7 -10 -15
-10 -8 0 -15 -4 -15 -10 0 -5 14 -10 30 -10 28 0 30 3 30 35 0 32 -2 35 -30
35 -16 0 -30 -4 -30 -9z"/>
<path d="M3660 3903 c0 -29 53 -45 64 -18 3 8 0 15 -7 15 -7 0 -22 3 -34 6
-13 4 -23 2 -23 -3z"/>
<path d="M3760 3903 c0 -1 7 -9 16 -17 13 -14 14 -18 1 -30 -8 -8 -32 -16 -53
-19 -21 -2 7 -4 64 -5 l103 -2 -3 38 -3 37 -62 0 c-35 0 -63 -1 -63 -2z"/>
<path d="M4810 3874 c0 -20 5 -34 13 -35 37 -3 117 -4 117 -1 0 1 -6 11 -12
22 -16 25 1 45 31 35 20 -6 30 -35 12 -35 -5 0 -11 -6 -14 -12 -3 -9 7 -12 37
-11 22 1 53 2 69 2 20 1 27 6 27 20 0 50 -4 51 -146 50 l-134 -1 0 -34z"/>
<path d="M3620 3863 c0 -30 3 -33 32 -33 28 0 30 2 15 13 -9 6 -23 21 -31 32
-15 19 -15 19 -16 -12z"/>
<path d="M700 3854 c0 -32 72 -135 85 -122 6 6 -43 97 -65 120 -20 21 -20 21
-20 2z"/>
<path d="M3567 3837 c-3 -9 -2 -19 4 -23 15 -9 18 -2 9 20 -6 17 -7 18 -13 3z"/>
<path d="M2091 3645 c-1 -63 1 -131 5 -150 l6 -35 229 0 229 0 0 150 0 150
-234 0 -234 0 -1 -115z m450 20 c0 -47 1 -106 1 -132 l1 -48 -214 -3 -214 -2
0 135 0 135 213 0 212 0 1 -85z"/>
<path d="M2480 3551 c0 -5 5 -13 10 -16 6 -3 10 -2 10 4 0 5 -4 13 -10 16 -5
3 -10 2 -10 -4z"/>
<path d="M2440 3539 c0 -5 5 -7 10 -4 6 3 10 8 10 11 0 2 -4 4 -10 4 -5 0 -10
-5 -10 -11z"/>
<path d="M5025 3730 c-3 -5 -1 -10 4 -10 6 0 11 5 11 10 0 6 -2 10 -4 10 -3 0
-8 -4 -11 -10z"/>
<path d="M4985 3720 c-3 -5 -1 -10 4 -10 6 0 11 5 11 10 0 6 -2 10 -4 10 -3 0
-8 -4 -11 -10z"/>
<path d="M5307 3681 c-19 -48 -70 -222 -65 -224 1 -1 14 -8 26 -15 13 -7 25
-12 27 -10 6 6 75 241 75 254 0 8 5 14 10 14 6 0 10 -52 10 -135 l0 -135 210
0 210 0 0 145 0 146 -244 -2 -245 -1 -14 -37z"/>
<path d="M3426 3702 c-3 -5 6 -20 19 -32 21 -20 25 -21 25 -7 0 9 5 17 11 17
6 0 10 -10 9 -22 -1 -13 -2 -71 -1 -129 l1 -106 210 1 210 1 0 143 0 143 -195
-2 c-107 -1 -195 -6 -195 -10 0 -5 4 -9 9 -9 11 0 24 -31 16 -38 -3 -3 -18 6
-33 21 -29 28 -76 44 -86 29z m344 -243 c0 -7 -16 5 -35 25 -19 21 -35 43 -35
49 1 15 70 -59 70 -74z"/>
<path d="M4998 3702 c-9 -2 -19 -11 -23 -20 -5 -14 -4 -15 6 -4 18 17 36 15
43 -4 3 -8 2 -12 -4 -9 -5 3 -26 -13 -47 -36 -37 -41 -49 -82 -32 -105 13 -16
68 -8 92 14 12 11 40 23 62 27 l40 7 -45 -46 c-24 -25 -50 -46 -57 -46 -8 0
-16 -7 -19 -15 -5 -12 -27 -15 -110 -15 -88 0 -103 -2 -98 -15 5 -13 36 -15
190 -15 157 0 184 2 184 15 0 12 -13 15 -55 15 -35 0 -55 4 -55 12 0 12 75 86
105 104 12 7 16 16 12 28 -6 14 -14 17 -45 11 -35 -6 -38 -4 -37 17 1 13 5 30
9 37 11 18 -18 46 -36 35 -14 -9 -50 -6 -58 5 -3 4 -12 5 -22 3z"/>
<path d="M3396 3645 c-10 -28 -7 -41 18 -70 l24 -28 7 33 c6 27 3 37 -18 57
-21 22 -25 23 -31 8z"/>
<path d="M3365 3547 c-5 -17 -3 -33 4 -40 17 -17 13 -27 -9 -27 -31 0 -26 -38
5 -46 31 -8 28 -11 47 49 12 36 12 47 3 47 -7 0 -19 10 -28 23 l-15 22 -7 -28z"/>
<path d="M4708 3411 l-48 -48 0 -393 0 -393 28 -23 c21 -18 23 -24 10 -24 -9
0 -22 8 -27 18 -7 12 -10 -85 -11 -315 0 -183 3 -333 7 -333 4 0 24 17 45 37
21 20 38 32 38 26 0 -6 -20 -29 -45 -51 l-46 -41 1 -203 c0 -112 0 -330 0
-486 l1 -282 -628 0 c-346 0 -1394 0 -2330 0 l-1703 0 0 -450 0 -450 8000 0
8000 0 0 450 0 450 -297 0 c-164 0 -1216 1 -2338 3 l-2039 2 1 54 2 54 -32
-29 c-17 -16 -35 -33 -39 -39 -4 -5 -10 -6 -14 -2 -4 3 13 25 37 47 l44 40 0
740 c0 421 -4 740 -9 740 -5 0 -23 -16 -41 -34 -18 -19 -35 -32 -39 -29 -3 4
-6 -223 -6 -503 0 -280 0 -617 -1 -749 0 -132 2 -248 6 -257 4 -9 4 -22 0 -27
-4 -8 -1004 -11 -3241 -11 l-3234 0 0 537 c0 296 0 872 0 1281 0 408 -1 742
-2 742 -2 0 -24 -22 -50 -49z m28 -905 c8 -8 14 -20 14 -27 0 -7 -9 -4 -20 9
-29 31 -24 48 6 18z m-3058 -1903 c12 -13 22 -35 22 -49 0 -32 -18 -66 -30
-59 -6 4 -20 -1 -32 -9 -30 -22 -60 -20 -86 4 -26 25 -30 85 -7 117 27 39 95
37 133 -4z m11277 -63 c22 -9 26 -15 25 -52 0 -24 1 -56 2 -72 6 -60 -94 -77
-108 -19 -4 14 -2 34 3 43 7 10 8 22 1 33 -17 31 1 60 49 76 1 1 13 -3 28 -9z
m313 -18 c18 -23 16 -127 -4 -146 -21 -22 -60 -20 -84 4 -35 35 -23 153 17
163 26 6 56 -2 71 -21z m153 -9 c16 -44 11 -111 -11 -133 -27 -27 -65 -26 -84
2 -19 27 -21 118 -3 140 26 34 83 29 98 -9z m137 12 c19 -17 18 -99 0 -127 -8
-13 -29 -28 -47 -35 -28 -10 -31 -9 -31 8 0 10 6 19 13 19 8 0 22 9 32 20 19
21 7 28 -13 8 -9 -9 -12 -9 -12 0 0 7 -7 12 -15 12 -20 0 -37 44 -29 75 10 41
68 53 102 20z m700 -12 c37 -40 28 -109 -18 -136 -33 -20 -49 -21 -87 -5 -15
6 -32 10 -36 9 -5 -1 -6 2 -3 7 3 5 2 22 -3 38 -13 47 5 93 42 109 40 17 76
10 105 -22z m502 23 c0 -8 -7 -16 -15 -20 -10 -4 -15 1 -15 14 0 11 7 20 15
20 8 0 15 -6 15 -14z m488 -4 c2 -7 -6 -12 -17 -12 -21 0 -27 11 -14 24 9 9
26 2 31 -12z m162 3 c0 -8 -9 -15 -20 -15 -20 0 -26 11 -13 23 12 13 33 7 33
-8z m-2802 -82 c-3 -74 -6 -88 -20 -91 -16 -3 -18 6 -18 87 0 85 1 91 20 91
20 0 21 -5 18 -87z m158 52 c35 -85 -3 -145 -91 -145 l-35 0 0 90 0 90 56 0
c53 0 55 -1 70 -35z m344 25 c0 -5 -4 -10 -8 -10 -5 0 -19 -9 -32 -20 l-23
-20 29 0 c40 0 53 -11 60 -47 5 -24 1 -36 -15 -52 -70 -70 -143 52 -80 133 20
25 69 37 69 16z m610 -4 c0 -9 -9 -12 -27 -10 -27 3 -53 -10 -53 -27 0 -5 13
-9 28 -9 38 0 52 -17 52 -62 0 -31 -5 -41 -24 -49 -31 -15 -72 -4 -86 21 -9
17 -8 20 8 20 10 0 23 -5 29 -11 16 -16 43 -3 43 20 0 25 -17 36 -52 33 -23
-2 -28 2 -28 20 0 58 9 68 61 68 35 0 49 -4 49 -14z m131 -28 c1 -24 1 -49 0
-55 -1 -7 3 -13 9 -13 5 0 10 -7 10 -15 0 -8 -5 -15 -10 -15 -6 0 -10 -8 -8
-17 2 -10 -4 -19 -14 -21 -13 -2 -18 3 -18 17 0 17 -6 21 -34 21 -19 0 -36 6
-39 13 -6 19 66 127 85 127 14 0 18 -9 19 -42z m159 29 c0 -7 -13 -12 -32 -12
-23 0 -34 -5 -36 -17 -3 -13 3 -18 22 -18 27 0 56 -32 56 -62 0 -25 -35 -58
-62 -58 -22 0 -58 26 -58 42 0 13 38 10 42 -4 6 -18 38 -1 38 21 0 25 -18 36
-54 32 -28 -3 -29 -1 -22 29 3 18 6 39 6 46 0 10 14 14 50 14 34 0 50 -4 50
-13z m481 -62 c15 -38 28 -78 28 -87 1 -25 -26 -23 -34 2 -5 15 -15 20 -40 20
-25 0 -35 -5 -40 -20 -4 -11 -15 -20 -27 -20 -11 0 -18 4 -16 8 2 4 16 45 33
90 39 107 57 108 96 7z m-14131 -41 c0 -126 -14 -154 -80 -154 -19 0 -40 4
-46 8 -20 13 -34 50 -34 87 0 44 39 88 73 83 33 -5 33 -34 0 -50 -43 -21 -41
-88 4 -88 33 0 43 27 43 118 0 63 4 92 13 95 23 8 27 -5 27 -99z m14320 91 c0
-8 5 -15 10 -15 6 0 10 -7 10 -15 0 -8 -4 -15 -10 -15 -18 0 -11 -72 8 -86 16
-12 16 -13 0 -19 -35 -14 -48 2 -48 54 0 34 -4 51 -15 55 -8 3 -15 1 -15 -4 0
-6 -3 -9 -7 -9 -28 4 -33 -4 -33 -52 0 -43 -3 -50 -17 -47 -19 3 -26 52 -16
110 4 25 8 27 43 24 43 -4 66 6 56 23 -5 7 1 11 13 11 12 0 21 -7 21 -15z
m670 -31 c0 -14 -4 -23 -9 -19 -15 9 -33 -33 -29 -68 2 -24 -1 -33 -14 -35
-16 -3 -18 5 -18 68 0 71 0 72 24 66 14 -3 28 -2 31 4 10 16 15 11 15 -16z
m348 -67 c-3 -75 -5 -82 -29 -96 -16 -9 -36 -12 -53 -7 -35 9 -28 31 9 31 16
0 30 6 33 15 4 12 3 13 -10 2 -12 -10 -20 -8 -42 9 -51 40 -24 137 35 125 16
-3 29 -1 29 4 0 5 7 7 15 3 13 -4 15 -21 13 -86z m-938 13 c0 -56 -3 -70 -15
-70 -12 0 -15 14 -15 70 0 56 3 70 15 70 12 0 15 -14 15 -70z m140 44 c6 -14
10 -45 10 -70 0 -37 -3 -44 -20 -44 -18 0 -20 7 -20 56 0 47 -3 55 -17 52 -14
-2 -19 -15 -21 -56 -3 -44 -6 -52 -23 -52 -17 0 -19 7 -19 68 l0 69 50 1 c46
1 52 -2 60 -24z m121 16 c33 -18 23 -33 -17 -25 -28 5 -35 3 -32 -7 3 -7 13
-15 24 -17 28 -5 44 -21 44 -42 0 -40 -89 -51 -104 -13 -9 23 -4 25 25 10 25
-13 49 -11 49 4 0 5 -16 14 -35 20 -34 11 -40 19 -35 50 4 29 44 39 81 20z
m157 -23 c15 -31 8 -79 -14 -97 -7 -7 -25 -9 -39 -6 -23 6 -25 3 -25 -24 0
-20 -5 -30 -15 -30 -12 0 -15 17 -15 94 l0 94 47 -2 c42 -1 49 -5 61 -29z m72
-38 c0 -62 -2 -70 -17 -67 -15 3 -19 16 -21 71 -3 62 -1 67 18 67 18 0 20 -6
20 -71z m160 0 c0 -62 -2 -70 -17 -67 -21 4 -27 35 -18 95 4 28 11 43 21 43
11 0 14 -16 14 -71z m144 14 c10 -58 4 -83 -19 -83 -12 0 -15 12 -15 56 0 52
-1 55 -22 52 -20 -3 -23 -9 -24 -53 -1 -38 -5 -51 -17 -53 -15 -3 -17 7 -17
66 l0 70 53 -2 52 -1 9 -52z m-14114 28 c0 -17 8 -20 48 -23 39 -3 47 -6 47
-23 0 -17 -8 -20 -47 -23 -47 -3 -48 -4 -48 -36 0 -35 22 -62 40 -51 6 4 15
18 21 32 11 30 33 26 37 -8 4 -35 -31 -69 -73 -69 -52 0 -65 27 -65 132 0 81
2 88 20 88 13 0 20 -7 20 -19z m12863 -6 c-3 -9 -8 -14 -10 -11 -3 3 -2 9 2
15 9 16 15 13 8 -4z m-13809 -30 c3 -9 -4 -21 -19 -31 -22 -14 -25 -24 -25
-75 0 -52 -2 -59 -20 -59 -18 0 -20 7 -20 70 0 57 4 74 20 90 24 24 56 26 64
5z m168 -2 c10 -9 18 -21 18 -28 0 -18 -59 -77 -70 -70 -14 9 -12 39 2 53 9 9
9 12 -3 12 -8 0 -20 -9 -27 -21 -11 -17 -11 -25 2 -44 12 -19 26 -25 63 -27
36 -2 49 -7 51 -20 3 -16 -5 -18 -59 -18 -57 0 -66 3 -87 28 -64 73 39 200
110 135z m202 -6 c26 -26 46 -131 28 -149 -21 -21 -39 0 -40 48 -1 26 -7 53
-13 61 -17 19 -47 16 -59 -7 -15 -28 -5 -55 25 -68 35 -16 33 -42 -4 -42 -70
0 -94 107 -36 157 34 29 70 29 99 0z m175 14 c9 -6 23 -5 37 1 37 17 73 2 90
-37 23 -56 16 -145 -12 -145 -15 0 -23 24 -26 90 -3 37 -6 45 -23 45 -18 0
-20 -8 -23 -63 -3 -53 -6 -63 -20 -60 -13 2 -18 16 -20 61 -2 41 -8 60 -18 64
-24 9 -32 -7 -36 -67 -3 -47 -6 -55 -23 -55 -18 0 -20 6 -19 69 1 59 4 72 23
88 25 20 48 23 70 9z m325 -6 c3 -10 -5 -20 -23 -29 -23 -13 -29 -23 -34 -62
-6 -54 -25 -74 -70 -74 -22 0 -28 4 -25 17 2 10 12 19 23 22 27 5 35 19 35 68
0 32 5 46 22 57 28 20 64 20 72 1z m264 -78 c3 -82 2 -87 -18 -87 -19 0 -20 6
-20 91 0 81 2 90 18 87 14 -3 17 -17 20 -91z m167 81 c6 1 22 4 37 8 21 5 33
0 53 -20 24 -24 26 -32 23 -93 -2 -54 -6 -67 -20 -69 -15 -2 -18 6 -18 51 0
66 -7 85 -31 85 -16 0 -19 -8 -19 -57 0 -72 -10 -91 -34 -68 -11 11 -16 34
-16 71 0 52 -2 55 -22 52 -21 -3 -23 -9 -26 -65 -3 -55 -6 -63 -22 -63 -18 0
-20 7 -20 68 0 37 4 72 8 78 14 21 47 34 72 28 14 -4 30 -6 35 -6z m278 3 c39
-15 40 -37 2 -77 -33 -34 -55 -38 -55 -9 0 7 7 21 16 29 12 13 12 16 2 16 -20
0 -38 -21 -38 -43 0 -26 24 -47 55 -47 24 0 45 -24 31 -37 -7 -7 -59 -6 -84 2
-46 14 -57 111 -17 150 26 27 49 31 88 16z m279 -8 c26 -31 28 -51 6 -56 -13
-4 -26 1 -37 14 -30 37 -70 -2 -57 -56 8 -32 33 -39 53 -15 17 20 44 26 56 14
11 -12 -22 -61 -45 -68 -62 -16 -95 1 -108 57 -10 45 4 102 28 116 28 17 87
13 104 -6z m178 -3 c15 -15 20 -33 20 -74 0 -47 -4 -57 -26 -75 -33 -26 -74
-27 -104 -3 -41 33 -35 154 8 165 42 11 83 6 102 -13z m176 9 c8 -7 14 -6 19
1 11 17 70 12 89 -9 13 -15 16 -34 14 -92 -3 -66 -5 -74 -23 -74 -18 0 -21 8
-25 67 -6 73 -12 87 -34 69 -10 -8 -16 -35 -18 -74 -3 -54 -5 -62 -23 -62 -18
0 -21 8 -25 70 -4 62 -7 70 -25 70 -18 0 -21 -8 -25 -70 -4 -62 -7 -70 -25
-70 -18 0 -20 8 -23 79 -2 44 -1 85 2 92 6 15 105 17 122 3z m-516 -150 c0
-14 -28 -29 -44 -23 -21 8 -21 40 2 53 13 8 20 6 30 -6 6 -9 12 -20 12 -24z"/>
<path d="M1577 592 c-20 -22 -22 -63 -5 -80 34 -34 92 6 63 44 -13 18 -15 18
-30 3 -12 -11 -13 -19 -6 -23 6 -4 11 -2 11 3 0 6 5 11 10 11 16 0 11 -30 -6
-37 -24 -9 -48 21 -40 50 12 50 69 45 92 -7 8 -19 13 -24 14 -13 0 23 -44 67
-68 67 -10 0 -26 -8 -35 -18z"/>
<path d="M12913 504 c-7 -19 11 -39 26 -30 16 10 13 33 -4 40 -9 3 -18 -1 -22
-10z"/>
<path d="M12907 427 c-8 -20 9 -41 27 -34 23 9 21 47 -3 47 -10 0 -21 -6 -24
-13z"/>
<path d="M13207 513 c-4 -3 -7 -30 -7 -60 0 -40 4 -55 16 -60 21 -8 34 13 34
55 0 50 -23 86 -43 65z"/>
<path d="M13350 501 c-12 -24 -13 -81 -1 -100 13 -20 41 -6 42 21 6 86 -15
126 -41 79z"/>
<path d="M13501 511 c-7 -5 -11 -19 -9 -32 4 -31 42 -33 46 -3 4 25 -19 46
-37 35z"/>
<path d="M14141 501 c-27 -38 -27 -72 2 -99 46 -44 110 -21 123 44 4 23 0 36
-20 57 -35 37 -78 37 -105 -2z m73 3 c17 -7 22 -34 6 -34 -5 0 -10 5 -10 11 0
19 -32 5 -41 -18 -5 -14 -3 -27 7 -40 14 -17 14 -17 29 1 16 22 31 16 22 -9
-7 -18 -48 -20 -65 -3 -7 7 -12 26 -12 43 0 46 24 64 64 49z"/>
<path d="M12680 450 c0 -63 8 -72 43 -46 20 15 23 76 5 94 -7 7 -20 12 -30 12
-15 0 -18 -9 -18 -60z"/>
<path d="M13060 445 c-16 -19 -3 -57 18 -53 22 4 28 53 8 61 -8 3 -20 0 -26
-8z"/>
<path d="M13797 460 c-16 -22 -16 -25 -1 -28 21 -5 26 2 22 30 l-3 23 -18 -25z"/>
<path d="M14439 480 c-3 -20 -4 -25 -12 -37 -6 -9 -1 -13 17 -13 23 0 24 2 15
30 -11 31 -18 38 -20 20z"/>
<path d="M15620 450 c-13 -24 2 -60 25 -60 17 0 28 33 20 60 -3 11 -13 20 -20
20 -8 0 -19 -9 -25 -20z"/>
<path d="M15104 456 c-11 -28 0 -61 21 -61 16 0 20 7 20 35 0 25 -5 36 -18 38
-9 2 -20 -3 -23 -12z"/>
<path d="M2451 396 c-7 -8 -11 -30 -9 -48 2 -25 8 -34 25 -36 31 -4 48 33 34
71 -12 30 -32 35 -50 13z"/>
<path d="M7040 3453 c-31 -11 -60 -47 -60 -73 0 -26 26 -60 47 -60 6 0 8 -19
5 -50 -4 -48 26 -162 35 -133 3 7 0 21 -6 31 -14 26 11 51 33 33 11 -9 21 -5
48 21 19 18 37 39 39 46 3 10 11 11 32 3 42 -16 113 -14 131 5 23 22 20 32
-17 69 -37 37 -133 71 -172 61 -18 -5 -31 2 -53 24 -31 31 -36 32 -62 23z"/>
<path d="M8349 3409 c-35 -13 -49 -48 -48 -117 2 -51 3 -53 8 -19 3 21 8 38
11 38 3 1 25 -4 50 -11 25 -7 66 -10 92 -7 l47 6 3 -37 c3 -33 6 -37 38 -43
19 -4 37 -5 39 -3 3 3 7 33 9 67 3 50 0 66 -14 83 -40 46 -166 68 -235 43z"/>
<path d="M10668 3373 c-12 -3 -29 -42 -58 -130 -22 -69 -39 -128 -37 -129 2
-2 17 -6 33 -9 28 -6 30 -4 45 47 9 29 27 87 40 128 l24 75 5 -130 5 -129 175
1 c96 1 192 2 213 2 l37 1 0 140 0 141 -232 -2 c-128 -1 -241 -4 -250 -6z"/>
<path d="M14598 3305 c-76 -40 -78 -46 -78 -232 0 -90 1 -163 3 -163 1 1 27 7
57 14 53 13 54 14 28 24 -39 16 -61 66 -66 152 l-4 76 41 -4 c22 -2 55 1 73 7
28 10 35 9 57 -13 14 -13 40 -28 56 -33 24 -8 29 -15 27 -34 -2 -13 -12 -31
-22 -39 -30 -25 -48 -63 -41 -85 6 -16 9 -17 17 -5 5 8 23 26 39 40 l30 25
-24 -27 c-12 -14 -20 -31 -17 -36 3 -5 -1 -9 -10 -8 -16 1 -43 -29 -33 -38 2
-3 24 -8 47 -12 l42 -7 0 158 c0 177 -9 210 -65 245 -43 27 -99 25 -157 -5z"/>
<path d="M8338 3253 c7 -3 16 -2 19 1 4 3 -2 6 -13 5 -11 0 -14 -3 -6 -6z"/>
<path d="M1705 3231 c-70 -17 -105 -54 -105 -111 0 -59 10 -81 32 -74 15 4 22
-2 35 -35 22 -56 33 -51 26 12 -4 39 -1 62 11 86 l17 32 26 -21 c36 -28 97
-27 117 2 20 28 26 21 31 -36 2 -25 8 -53 14 -63 8 -14 10 3 11 64 0 78 -1 82
-30 107 -49 40 -115 54 -185 37z"/>
<path d="M8350 3220 c0 -5 5 -10 10 -10 6 0 10 5 10 10 0 6 -4 10 -10 10 -5 0
-10 -4 -10 -10z"/>
<path d="M8450 3210 c0 -5 5 -10 10 -10 6 0 10 5 10 10 0 6 -4 10 -10 10 -5 0
-10 -4 -10 -10z"/>
<path d="M7190 3180 c0 -5 5 -10 11 -10 5 0 7 5 4 10 -3 6 -8 10 -11 10 -2 0
-4 -4 -4 -10z"/>
<path d="M7290 3179 c0 -5 5 -7 10 -4 6 3 10 8 10 11 0 2 -4 4 -10 4 -5 0 -10
-5 -10 -11z"/>
<path d="M11923 3040 l-2 -150 43 0 42 0 13 51 c7 27 16 47 20 44 3 -4 15 -50
26 -103 l21 -97 13 48 c12 43 31 64 31 35 0 -26 18 10 40 77 12 39 26 74 30
79 5 4 11 -18 15 -50 3 -33 9 -75 13 -94 l8 -35 13 58 c7 31 16 57 21 57 4 0
11 -21 15 -47 6 -40 9 -44 17 -29 10 18 11 18 23 -4 12 -22 14 -19 35 44 12
36 25 64 29 62 4 -3 16 -41 26 -86 10 -44 20 -78 22 -76 5 5 27 108 43 204 6
39 15 72 19 72 5 0 16 -46 25 -102 9 -56 18 -104 20 -105 2 -2 9 17 16 42 22
77 23 74 56 -85 l7 -35 13 48 c16 61 20 66 35 33 9 -20 20 -26 43 -26 17 0 38
-5 46 -10 11 -7 2 -10 -32 -10 -39 0 -49 4 -59 22 -11 21 -13 18 -26 -32 -22
-87 -28 -84 -45 23 -6 42 -15 77 -18 77 -4 0 -12 -18 -19 -40 -6 -22 -16 -40
-20 -40 -5 0 -14 35 -21 78 -16 101 -25 117 -34 56 -11 -90 -39 -224 -46 -224
-3 0 -17 41 -30 91 l-23 91 -22 -58 c-22 -60 -34 -70 -46 -37 -6 16 -8 15 -17
-7 -11 -26 -10 -26 -30 35 -9 29 -10 28 -23 -32 -7 -35 -16 -63 -20 -63 -4 0
-10 26 -14 58 -3 31 -9 75 -12 97 l-6 40 -26 -85 c-24 -74 -28 -83 -38 -65
-13 22 -11 25 -34 -50 -15 -48 -20 -39 -45 80 -16 75 -18 78 -26 48 -8 -31
-11 -33 -57 -33 l-48 0 1 -115 1 -115 428 2 429 3 1 135 c0 74 0 195 -1 268
l-2 132 -428 0 -428 0 -1 -150z m150 98 c8 -12 5 -24 -17 -52 -33 -43 -44 -44
-79 -8 -28 30 -36 67 -14 75 30 10 100 1 110 -15z"/>
<path d="M13819 3145 c-50 -27 -45 -64 6 -45 41 16 47 5 39 -70 -8 -87 4 -96
57 -41 42 45 47 66 24 111 -29 56 -75 73 -126 45z"/>
<path d="M7080 3128 c0 -8 9 -23 20 -33 11 -10 20 -14 20 -8 0 5 -9 20 -20 33
-14 16 -20 19 -20 8z"/>
<path d="M7343 3090 c0 -25 2 -35 4 -22 2 12 2 32 0 45 -2 12 -4 2 -4 -23z"/>
<path d="M13702 3088 c-8 -8 -8 -17 -1 -31 8 -13 8 -22 0 -30 -12 -12 -15 -47
-3 -47 51 1 69 34 47 87 -15 35 -24 40 -43 21z m25 -50 c-3 -8 -6 -5 -6 6 -1
11 2 17 5 13 3 -3 4 -12 1 -19z"/>
<path d="M1745 3060 c-16 -7 -17 -9 -3 -9 9 -1 20 4 23 9 7 11 7 11 -20 0z"/>
<path d="M1750 3010 c0 -5 5 -10 10 -10 6 0 10 5 10 10 0 6 -4 10 -10 10 -5 0
-10 -4 -10 -10z"/>
<path d="M1850 3010 c0 -5 5 -10 10 -10 6 0 10 5 10 10 0 6 -4 10 -10 10 -5 0
-10 -4 -10 -10z"/>
<path d="M9818 3002 c-21 -2 -38 -9 -39 -15 -3 -49 -1 -259 3 -262 6 -6 1359
-7 1365 -1 7 6 5 267 -2 274 -3 3 -193 5 -423 5 -508 -1 -491 -1 -473 -12 8
-5 21 -7 30 -4 13 4 13 3 2 -5 -7 -5 -11 -15 -7 -21 4 -7 1 -9 -8 -5 -8 3 -19
-3 -26 -15 -6 -12 -16 -21 -22 -21 -6 0 -1 11 12 24 21 24 22 26 5 42 -15 16
-40 18 -199 18 -99 1 -198 0 -218 -2z m567 -142 c3 -5 -1 -10 -9 -10 -9 0 -16
5 -16 10 0 6 4 10 9 10 6 0 13 -4 16 -10z m-255 -20 c0 -12 -60 -73 -66 -67
-5 5 54 77 62 77 2 0 4 -4 4 -10z m295 -38 c-6 -7 -35 18 -35 31 0 5 9 2 20
-8 11 -10 18 -20 15 -23z"/>
<path d="M13598 3003 c-27 -7 -22 -29 18 -73 50 -55 114 -53 114 3 0 17 -5 19
-43 13 -52 -8 -89 12 -69 37 15 17 6 25 -20 20z"/>
<path d="M8312 2985 c-93 -21 -132 -47 -169 -114 -41 -74 -112 -152 -166 -184
-49 -29 -138 -57 -179 -57 -32 0 -34 -4 -42 -72 l-6 -48 36 0 c63 0 205 41
268 77 33 20 84 58 113 85 l51 50 12 -58 c6 -33 20 -95 30 -139 15 -70 36
-209 32 -226 0 -3 -3 -75 -7 -160 -3 -85 -8 -174 -11 -198 -4 -34 -3 -41 8
-35 11 6 11 5 0 -8 -9 -11 -14 -76 -18 -224 -3 -114 -7 -211 -10 -215 -2 -4 4
-10 13 -12 13 -3 14 -5 3 -6 -12 -1 -15 -16 -14 -79 1 -99 -7 -112 -69 -112
l-48 0 3 -32 3 -33 93 0 c104 0 108 2 97 77 -3 24 -2 71 3 106 8 59 8 62 -12
63 -18 1 -18 2 4 8 17 5 25 15 27 31 1 14 9 80 18 148 9 67 14 126 11 130 -4
7 15 233 30 360 8 66 33 73 35 10 1 -24 3 -50 3 -58 1 -8 5 -67 9 -130 10
-136 34 -363 48 -440 15 -78 23 -230 12 -230 -4 0 -8 -10 -9 -22 0 -13 -4 -31
-8 -40 -7 -15 1 -16 69 -15 l76 1 -7 30 c-3 17 -13 39 -21 48 -8 9 -12 22 -8
27 3 6 2 11 -4 11 -5 0 -13 -4 -16 -10 -3 -5 -15 -15 -26 -20 -16 -9 -19 -7
-19 10 0 12 4 19 9 16 4 -3 18 5 29 17 23 24 28 91 9 114 -6 9 -5 14 4 18 18
7 26 250 9 270 -6 7 -9 17 -8 21 2 5 -3 23 -11 41 -11 27 -10 56 8 200 11 92
21 218 22 278 1 157 30 330 71 438 13 34 21 27 41 -38 33 -109 26 -216 -27
-415 -6 -22 -2 -28 29 -43 20 -9 39 -17 44 -17 24 0 88 192 96 290 12 134 -35
331 -100 416 -29 38 -104 77 -182 95 -50 12 -53 11 -88 -15 -45 -34 -87 -33
-95 4 -7 31 -18 32 -98 15z m278 -659 c0 -3 -4 -8 -10 -11 -5 -3 -10 -1 -10 4
0 6 5 11 10 11 6 0 10 -2 10 -4z m-283 -98 c-3 -8 -6 -5 -6 6 -1 11 2 17 5 13
3 -3 4 -12 1 -19z m300 -45 c-3 -10 -5 -4 -5 12 0 17 2 24 5 18 2 -7 2 -21 0
-30z m-137 7 c-6 -11 -13 -20 -16 -20 -2 0 0 9 6 20 6 11 13 20 16 20 2 0 0
-9 -6 -20z m-30 1 c0 -5 -7 -11 -14 -14 -10 -4 -13 -1 -9 9 6 15 23 19 23 5z
m-130 -31 c0 -5 -5 -10 -11 -10 -5 0 -7 5 -4 10 3 6 8 10 11 10 2 0 4 -4 4
-10z m157 -47 c-3 -10 -5 -4 -5 12 0 17 2 24 5 18 2 -7 2 -21 0 -30z m130 -5
c-3 -7 -5 -2 -5 12 0 14 2 19 5 13 2 -7 2 -19 0 -25z m-20 -115 c-3 -10 -5 -2
-5 17 0 19 2 27 5 18 2 -10 2 -26 0 -35z m-270 -125 c-3 -7 -5 -2 -5 12 0 14
2 19 5 13 2 -7 2 -19 0 -25z m-20 -35 c-3 -10 -5 -4 -5 12 0 17 2 24 5 18 2
-7 2 -21 0 -30z m80 -20 c-3 -10 -5 -2 -5 17 0 19 2 27 5 18 2 -10 2 -26 0
-35z m-87 -103 c-6 -42 -8 -47 -9 -20 -1 34 8 84 14 78 2 -2 0 -28 -5 -58z
m67 38 c-3 -8 -6 -5 -6 6 -1 11 2 17 5 13 3 -3 4 -12 1 -19z m20 -30 c-3 -8
-6 -5 -6 6 -1 11 2 17 5 13 3 -3 4 -12 1 -19z m-59 -108 c-1 -29 -2 -26 -8 15
-11 69 -10 126 1 65 4 -25 7 -61 7 -80z m51 -45 c0 -5 -4 -3 -9 5 -7 11 -10 6
-11 -20 0 -19 -3 -29 -6 -22 -3 7 -2 30 2 50 6 31 9 34 15 17 5 -11 9 -24 9
-30z m188 -22 c-3 -10 -5 -4 -5 12 0 17 2 24 5 18 2 -7 2 -21 0 -30z m-247
-53 c0 -5 -4 -10 -10 -10 -5 0 -10 5 -10 10 0 6 5 10 10 10 6 0 10 -4 10 -10z
m290 -32 c0 -4 -13 -8 -30 -8 -16 0 -30 4 -30 8 0 5 14 8 30 8 17 0 30 -3 30
-8z m-17 -25 c-7 -2 -19 -2 -25 0 -7 3 -2 5 12 5 14 0 19 -2 13 -5z"/>
<path d="M7136 2939 c11 -13 39 -57 63 -96 44 -77 55 -88 47 -50 -8 36 -18
111 -18 129 1 14 -5 16 -27 12 -19 -4 -39 0 -57 12 l-29 18 21 -25z m69 -48
c-3 -6 -11 -11 -16 -11 -5 0 -4 6 3 14 14 16 24 13 13 -3z"/>
<path d="M13845 2921 c-3 -5 -1 -13 5 -16 6 -4 18 -24 27 -46 18 -46 43 -52
43 -10 0 16 7 34 15 41 19 16 20 40 1 40 -7 0 -19 -7 -26 -15 -12 -14 -15 -14
-30 0 -19 17 -27 19 -35 6z"/>
<path d="M14626 2899 c-55 -158 -58 -180 -45 -290 12 -96 29 -126 29 -49 0 81
54 267 93 318 15 19 2 25 -23 10 -18 -11 -23 -11 -35 6 -11 15 -16 16 -19 5z"/>
<path d="M1670 2805 c0 -19 35 -158 58 -230 23 -71 30 -85 35 -65 21 98 27
140 27 203 0 55 -3 68 -12 59 -19 -19 -53 -14 -82 13 -14 13 -26 22 -26 20z"/>
<path d="M7097 2783 c-4 -3 -7 -15 -7 -25 0 -14 8 -18 40 -18 36 0 40 3 40 25
0 22 -4 25 -33 25 -19 0 -37 -3 -40 -7z"/>
<path d="M13823 2753 c-13 -2 -23 -7 -23 -10 0 -3 12 -32 26 -64 31 -70 54
-78 54 -20 0 22 5 43 10 46 19 12 -1 25 -21 15 -18 -10 -19 -9 -13 14 3 15 2
25 -2 25 -5 -1 -19 -4 -31 -6z"/>
<path d="M14036 2733 c4 -16 7 -63 6 -105 -1 -62 1 -78 13 -78 10 0 16 16 21
49 6 44 9 50 33 53 37 4 36 42 -1 46 -16 2 -28 9 -28 17 0 16 -27 45 -42 45
-7 0 -7 -10 -2 -27z"/>
<path d="M14360 2739 c0 -19 -4 -20 -40 -14 -32 5 -40 4 -40 -9 0 -8 9 -20 20
-26 29 -16 25 -27 -15 -34 -37 -7 -42 -15 -23 -34 15 -15 53 -15 99 1 48 16
65 32 78 68 9 28 9 29 -18 29 -20 0 -30 6 -34 20 -7 26 -27 26 -27 -1z"/>
<path d="M3500 2690 c-27 -21 -50 -26 -50 -10 0 6 -4 10 -8 10 -5 0 -16 -32
-26 -71 -15 -56 -17 -89 -12 -168 11 -159 20 -170 34 -43 7 65 21 131 33 159
30 68 59 143 56 143 -1 0 -13 -9 -27 -20z"/>
<path d="M3710 2687 c0 -8 8 -38 19 -68 27 -81 33 -141 21 -211 -14 -73 -31
-112 -72 -154 l-30 -32 21 -41 c12 -22 19 -41 16 -41 -3 0 4 -17 15 -37 11
-21 20 -49 20 -63 0 -14 12 -36 25 -49 14 -13 25 -27 25 -33 0 -5 -11 4 -25
19 -22 25 -24 26 -25 8 0 -11 -11 -37 -25 -58 l-26 -37 -254 0 -255 0 22 -45
22 -45 297 0 298 0 6 48 c3 26 12 74 20 107 7 33 17 83 20 110 4 28 13 88 21
135 52 303 63 370 69 415 3 28 8 58 11 68 5 15 -5 17 -115 17 -95 0 -121 -3
-121 -13z m174 -101 c-63 -61 -71 -49 -8 13 27 27 50 45 52 41 2 -5 -18 -29
-44 -54z m-80 -651 c3 -8 1 -15 -3 -15 -5 0 -11 7 -15 15 -3 8 -1 15 3 15 5 0
11 -7 15 -15z"/>
<path d="M7290 2680 c6 -11 13 -20 16 -20 2 0 0 9 -6 20 -6 11 -13 20 -16 20
-2 0 0 -9 6 -20z"/>
<path d="M7353 2610 c14 -11 28 -20 32 -20 4 0 -4 9 -18 20 -14 11 -28 20 -32
20 -4 0 4 -9 18 -20z"/>
<path d="M2994 2568 c5 -39 4 -58 -3 -58 -7 0 -11 -34 -11 -95 l0 -95 -446 0
c-294 0 -443 -3 -439 -10 3 -5 1 -10 -4 -10 -6 0 -11 5 -11 10 0 7 -163 10
-470 10 -411 0 -470 -2 -470 -15 0 -13 22 -15 135 -15 l136 0 -5 -32 c-20
-122 -26 -199 -16 -217 18 -35 52 -51 106 -51 l51 0 -3 53 c-2 28 -5 86 -8
127 -2 41 -7 82 -10 91 -6 14 21 17 266 22 150 4 531 6 845 7 507 0 572 1 567
15 -4 10 -20 15 -50 15 l-44 0 0 95 c0 53 -4 95 -9 95 -6 0 -11 24 -13 53 l-4
52 -8 -53 c-8 -46 -12 -53 -29 -50 -16 2 -24 15 -33 51 -18 70 -28 72 -20 5z"/>
<path d="M14476 2593 c-4 -10 1 -25 14 -37 21 -22 26 -13 14 32 -7 26 -19 29
-28 5z"/>
<path d="M1887 2593 c-2 -5 -3 -17 -3 -28 1 -16 8 -20 39 -20 34 -1 37 1 37
27 0 25 -3 28 -34 28 -19 0 -37 -3 -39 -7z"/>
<path d="M7550 2565 c-7 -9 -11 -16 -9 -18 47 -27 49 -27 55 -12 6 15 -11 45
-26 45 -4 0 -13 -7 -20 -15z"/>
<path d="M7437 2559 c7 -7 15 -10 18 -7 3 3 -2 9 -12 12 -14 6 -15 5 -6 -5z"/>
<path d="M10320 2560 c0 -6 28 -10 64 -10 36 0 68 5 71 10 4 6 -20 10 -64 10
-41 0 -71 -4 -71 -10z"/>
<path d="M10490 2560 c0 -6 28 -10 65 -10 37 0 65 4 65 10 0 6 -28 10 -65 10
-37 0 -65 -4 -65 -10z"/>
<path d="M1441 2535 c-1 -16 -4 -40 -7 -52 -5 -17 -2 -23 10 -23 17 0 19 23 6
75 l-8 30 -1 -30z"/>
<path d="M10785 2530 c-25 -3 -35 -8 -27 -13 15 -10 16 -67 1 -67 -8 0 -8 -4
1 -15 6 -8 9 -18 6 -24 -3 -5 -3 -24 2 -42 5 -27 8 -15 12 56 l5 90 140 0 140
0 0 -30 0 -30 -137 -3 c-185 -4 -183 -22 2 -22 l140 0 0 -47 c0 -82 10 -40 14
58 l3 94 -131 0 c-72 0 -149 -2 -171 -5z"/>
<path d="M14153 2525 c-3 -9 -3 -19 1 -22 3 -4 6 1 6 10 0 8 6 18 13 20 9 4 9
6 -1 6 -7 1 -15 -6 -19 -14z"/>
<path d="M9823 2461 c5 -21 1 -34 -14 -47 -12 -11 -19 -28 -17 -43 3 -23 8
-26 51 -29 l47 -3 0 35 c0 24 -6 39 -22 50 -17 12 -19 18 -9 30 16 19 6 36
-21 36 -17 0 -20 -4 -15 -29z m34 -77 c8 -21 -19 -38 -30 -18 -9 16 -1 34 14
34 5 0 12 -7 16 -16z"/>
<path d="M10054 2476 c-3 -8 -3 -20 1 -26 4 -7 -4 -24 -18 -38 -19 -21 -23
-32 -16 -49 7 -19 16 -23 54 -23 44 0 45 0 45 34 0 18 -7 39 -15 46 -9 7 -14
24 -13 39 3 29 -28 43 -38 17z m40 -107 c-7 -13 -31 -11 -40 2 -9 16 18 30 33
17 7 -6 10 -14 7 -19z"/>
<path d="M10167 2484 c-3 -4 -2 -14 3 -24 7 -13 4 -24 -10 -40 -11 -13 -20
-36 -20 -52 0 -27 2 -28 50 -28 49 0 50 1 50 29 0 16 -8 37 -17 47 -10 10 -18
29 -18 43 0 25 -23 40 -38 25z m39 -95 c9 -16 -12 -33 -31 -25 -14 5 -15 9 -5
21 15 18 26 19 36 4z"/>
<path d="M9930 2472 c0 -4 5 -13 12 -20 10 -10 7 -16 -10 -28 -15 -11 -22 -25
-22 -50 l0 -34 50 0 c50 0 50 0 48 30 -1 17 -10 39 -20 49 -10 11 -14 27 -11
40 4 17 1 21 -21 21 -14 0 -26 -4 -26 -8z m48 -90 c5 -17 -27 -27 -41 -13 -9
9 -8 14 3 21 18 11 32 8 38 -8z"/>
<path d="M10320 2440 c0 -16 0 -33 0 -37 0 -5 31 -9 70 -11 l70 -3 0 41 0 40
-70 0 -70 0 0 -30z m92 6 c16 -12 16 -14 -3 -29 -17 -15 -22 -16 -34 -3 -16
16 -10 46 9 46 6 0 19 -6 28 -14z"/>
<path d="M10480 2430 l0 -40 42 0 41 0 -23 20 c-19 16 -21 22 -10 35 16 19 34
19 49 1 8 -10 9 -16 1 -21 -22 -14 -10 -36 18 -33 23 3 27 8 30 41 l3 37 -75
0 -76 0 0 -40z"/>
<path d="M9077 2434 c-4 -4 -7 -22 -7 -41 0 -31 -2 -33 -33 -33 -53 0 -64 -21
-66 -126 -3 -136 -8 -133 207 -136 143 -2 175 0 182 12 14 23 12 224 -2 238
-7 7 -27 12 -44 12 -31 0 -33 3 -36 38 l-3 37 -95 3 c-53 1 -99 0 -103 -4z
m173 -49 c0 -24 -2 -25 -75 -25 -73 0 -75 1 -75 25 0 24 2 25 75 25 73 0 75
-1 75 -25z m-160 -206 c0 -33 -3 -40 -17 -37 -32 6 -30 78 2 78 11 0 15 -11
15 -41z m205 1 c0 -24 -5 -36 -16 -38 -12 -2 -18 6 -21 33 -5 40 -1 47 22 43
10 -2 15 -15 15 -38z"/>
<path d="M9810 2200 c0 -6 28 -10 65 -10 37 0 65 4 65 10 0 6 -28 10 -65 10
-37 0 -65 -4 -65 -10z"/>
<path d="M9970 2200 c0 -6 30 -10 71 -10 44 0 68 4 64 10 -3 6 -35 10 -71 10
-36 0 -64 -4 -64 -10z"/>
<path d="M10230 2095 l0 -115 108 -1 c59 -1 159 -1 222 -1 l115 1 3 115 3 116
-226 0 -225 0 0 -115z m250 50 c0 -20 5 -25 25 -25 20 0 25 -5 25 -25 0 -20
-5 -25 -25 -25 -20 0 -25 -5 -25 -25 0 -20 -5 -25 -25 -25 -20 0 -25 5 -25 25
0 20 -5 25 -26 25 -21 0 -25 4 -22 23 2 14 11 23 26 25 13 2 22 10 22 21 0 23
9 31 32 31 13 0 18 -7 18 -25z"/>
<path d="M10720 2200 c0 -6 28 -10 65 -10 37 0 65 4 65 10 0 6 -28 10 -65 10
-37 0 -65 -4 -65 -10z"/>
<path d="M11005 2200 c-4 -6 20 -10 65 -10 45 0 69 4 65 10 -3 6 -33 10 -65
10 -32 0 -62 -4 -65 -10z"/>
<path d="M10914 2096 c4 -16 0 -29 -14 -41 -11 -10 -20 -31 -20 -47 0 -27 2
-28 50 -28 45 0 50 2 50 23 0 12 -7 32 -15 44 -9 12 -13 34 -11 48 4 21 1 25
-21 25 -21 0 -24 -3 -19 -24z m31 -70 c12 -12 12 -16 0 -26 -21 -18 -51 6 -34
26 14 17 17 17 34 0z"/>
<path d="M9896 2100 c-16 -5 -17 -7 -2 -19 15 -13 15 -15 0 -32 -16 -18 -16
-19 19 -19 35 0 37 2 37 34 0 36 -19 49 -54 36z"/>
<path d="M10790 2104 c0 -2 7 -10 16 -19 15 -15 15 -17 -1 -35 -18 -20 -17
-20 18 -20 27 0 37 4 37 16 0 14 -3 14 -15 4 -11 -9 -15 -9 -15 -1 0 6 7 14
15 17 27 11 16 32 -20 36 -19 2 -35 3 -35 2z"/>
<path d="M9800 2065 c0 -34 1 -35 38 -35 33 1 35 2 20 14 -20 14 -24 36 -8 36
6 0 10 5 10 10 0 6 -13 10 -30 10 -28 0 -30 -3 -30 -35z"/>
<path d="M9968 2093 c0 -5 -2 -20 -3 -35 -2 -25 1 -28 31 -28 19 0 34 5 34 10
0 6 -4 10 -10 10 -5 0 -10 7 -10 15 0 8 5 15 10 15 6 0 10 5 10 10 0 11 -59
14 -62 3z"/>
<path d="M10050 2090 c0 -5 5 -10 10 -10 6 0 10 -7 10 -15 0 -8 -4 -15 -10
-15 -5 0 -10 -4 -10 -10 0 -5 14 -10 30 -10 28 0 30 3 30 35 0 32 -2 35 -30
35 -16 0 -30 -4 -30 -10z"/>
<path d="M10716 2073 c1 -16 2 -31 3 -35 1 -5 15 -8 33 -8 29 0 30 1 15 18
-15 17 -15 19 0 35 16 16 15 17 -18 17 -33 0 -36 -2 -33 -27z"/>
<path d="M11000 2065 c0 -32 2 -35 30 -35 17 0 30 5 30 10 0 6 -4 10 -10 10
-5 0 -10 7 -10 15 0 8 5 15 10 15 6 0 10 5 10 10 0 6 -13 10 -30 10 -28 0 -30
-3 -30 -35z"/>
<path d="M11080 2090 c0 -5 5 -10 10 -10 6 0 10 -7 10 -15 0 -8 -4 -15 -10
-15 -5 0 -10 -4 -10 -10 0 -5 14 -10 30 -10 28 0 30 3 30 35 0 32 -2 35 -30
35 -16 0 -30 -4 -30 -10z"/>
<path d="M14520 2068 c0 -25 3 -29 10 -18 13 20 13 50 0 50 -5 0 -10 -15 -10
-32z"/>
<path d="M2193 2025 c4 -9 -15 -30 -58 -61 -53 -39 -66 -55 -79 -95 -18 -54
-51 -240 -62 -342 -4 -37 -10 -67 -14 -67 -4 0 -7 -15 -7 -33 0 -18 -3 -44 -6
-59 -7 -26 -6 -26 65 -33 50 -5 73 -4 76 4 2 6 22 11 45 11 l42 0 -2 -77 -2
-78 140 1 140 2 87 83 c48 46 98 94 111 106 l24 23 -251 0 -251 0 -3 213 c-2
133 1 215 7 219 6 5 171 7 368 5 l357 -2 0 23 0 22 -365 0 -365 0 0 50 0 50
354 0 c340 0 354 1 359 19 2 11 15 21 28 24 13 2 -149 5 -360 6 -332 1 -382
-1 -378 -14z"/>
<path d="M14521 1984 c0 -11 3 -14 6 -6 3 7 2 16 -1 19 -3 4 -6 -2 -5 -13z"/>
<path d="M1532 1920 c-48 -4 -67 -10 -78 -24 -8 -11 -14 -23 -14 -28 0 -4 135
-8 300 -8 195 0 300 4 300 10 0 6 -9 18 -20 28 -18 14 -50 18 -223 22 -111 3
-231 3 -265 0z"/>
<path d="M14521 1904 c0 -11 3 -14 6 -6 3 7 2 16 -1 19 -3 4 -6 -2 -5 -13z"/>
<path d="M3820 1730 c-11 -11 -17 -26 -14 -34 4 -10 -7 -21 -34 -35 -54 -28
-96 -71 -122 -128 -12 -27 -26 -56 -31 -65 -5 -10 -6 -25 -2 -34 4 -10 2 -15
-4 -11 -5 3 -10 0 -10 -8 0 -8 5 -15 11 -15 6 0 4 -5 -4 -10 -8 -5 -10 -10 -4
-10 6 0 11 -7 11 -15 0 -8 -3 -15 -7 -15 -3 0 -6 -9 -6 -20 0 -11 3 -20 6 -20
8 0 4 -79 -4 -87 -3 -3 -1 -14 4 -23 9 -17 32 -18 277 -18 148 -1 282 1 299 4
l31 4 -3 113 c-2 61 -4 112 -4 112 -1 0 -3 17 -5 38 -2 22 -15 58 -29 80 -25
44 -96 116 -134 136 -12 6 -22 18 -22 26 0 8 -9 24 -20 35 -29 29 -151 29
-180 0z m164 4 c9 -3 16 -15 16 -25 0 -18 -5 -19 -62 -13 -37 3 -74 1 -90 -5
-24 -9 -28 -8 -28 7 0 10 5 23 12 30 12 12 124 17 152 6z m45 -80 c23 -9 61
-38 86 -66 62 -69 81 -136 77 -273 l-3 -105 -275 0 -275 0 3 144 3 144 39 56
c41 59 82 90 149 112 50 17 139 11 196 -12z"/>
<path d="M3847 1653 c-4 -3 -7 -15 -7 -25 0 -14 8 -18 35 -18 31 0 35 3 35 25
0 21 -5 25 -28 25 -16 0 -32 -3 -35 -7z"/>
<path d="M3920 1636 c0 -23 4 -26 36 -26 31 0 35 3 32 23 -2 17 -11 23 -35 25
-30 3 -33 1 -33 -22z"/>
<path d="M3786 1630 c-24 -16 -26 -19 -10 -22 31 -7 54 3 54 23 0 23 -7 23
-44 -1z"/>
<path d="M4000 1629 c0 -15 7 -19 31 -19 26 0 29 3 20 14 -20 24 -51 27 -51 5z"/>
<path d="M3770 1583 c0 -7 -5 -13 -11 -13 -5 0 -7 5 -4 10 3 6 0 10 -8 10 -14
0 -57 -40 -57 -53 0 -15 53 -6 66 11 13 16 14 16 8 0 -3 -10 -1 -18 5 -18 6 0
11 7 11 17 0 15 1 15 18 0 27 -24 32 -21 32 17 0 30 -2 33 -30 32 -17 -1 -30
-7 -30 -13z"/>
<path d="M4000 1564 c0 -31 3 -34 29 -34 24 0 29 5 33 30 3 17 0 31 -6 31 -57
7 -56 7 -56 -27z"/>
<path d="M4079 1593 c0 -4 -2 -20 -4 -35 -3 -26 -1 -28 31 -28 l35 0 -21 30
c-23 32 -40 46 -41 33z"/>
<path d="M3840 1560 c0 -33 21 -40 53 -16 30 23 21 46 -18 46 -32 0 -35 -2
-35 -30z"/>
<path d="M3924 1568 c3 -13 6 -26 6 -30 0 -5 14 -8 30 -8 27 0 30 3 30 30 0
28 -3 30 -36 30 -33 0 -36 -2 -30 -22z"/>
<path d="M3690 1485 c0 -35 1 -36 33 -33 17 2 32 8 32 15 0 6 4 15 9 20 5 5 7
-1 3 -14 -4 -18 -1 -23 13 -23 16 0 17 4 8 33 -9 29 -14 32 -54 35 l-44 3 0
-36z"/>
<path d="M3841 1488 c0 -28 2 -30 9 -13 12 28 12 45 0 45 -5 0 -10 -15 -9 -32z"/>
<path d="M3920 1485 c0 -33 2 -35 35 -35 33 0 35 2 35 35 0 33 -2 35 -35 35
-33 0 -35 -2 -35 -35z"/>
<path d="M4000 1486 l0 -34 70 0 70 0 0 35 c0 33 -1 34 -32 31 -28 -2 -32 -7
-30 -25 2 -13 -2 -23 -7 -23 -6 0 -11 11 -11 25 0 21 -5 25 -30 25 -27 0 -30
-3 -30 -34z"/>
<path d="M3667 1493 c-11 -10 -8 -43 3 -43 6 0 10 11 10 25 0 26 -2 29 -13 18z"/>
<path d="M4150 1478 c0 -16 5 -28 10 -28 13 0 13 20 0 40 -8 12 -10 9 -10 -12z"/>
<path d="M3895 1477 c-4 -10 -5 -21 -1 -24 10 -10 18 4 13 24 -4 17 -4 17 -12
0z"/>
<path d="M3650 1404 c0 -45 24 -42 28 4 2 24 -1 32 -12 32 -12 0 -16 -10 -16
-36z"/>
<path d="M3690 1404 l0 -35 53 4 c50 3 52 4 55 34 l3 31 -55 1 -56 0 0 -35z
m75 -4 c3 -5 1 -10 -4 -10 -6 0 -11 5 -11 10 0 6 2 10 4 10 3 0 8 -4 11 -10z"/>
<path d="M3895 1430 c3 -5 8 -10 11 -10 2 0 4 5 4 10 0 6 -5 10 -11 10 -5 0
-7 -4 -4 -10z"/>
<path d="M3920 1432 c0 -4 16 -6 35 -4 19 2 35 6 35 8 0 2 -16 4 -35 4 -19 0
-35 -4 -35 -8z"/>
<path d="M4000 1434 c0 -12 45 -54 58 -54 7 0 10 5 7 10 -3 6 -1 10 4 10 6 0
11 -7 11 -15 0 -10 10 -15 30 -15 28 0 30 3 30 35 0 32 -2 35 -30 35 -22 0
-30 -5 -30 -17 -1 -17 -1 -17 -14 0 -12 16 -66 25 -66 11z"/>
<path d="M4150 1410 c0 -16 5 -30 10 -30 6 0 10 14 10 30 0 17 -4 30 -10 30
-5 0 -10 -13 -10 -30z"/>
<path d="M3650 1330 c0 -20 5 -30 15 -30 10 0 15 10 15 30 0 20 -5 30 -15 30
-10 0 -15 -10 -15 -30z"/>
<path d="M3690 1330 c0 -30 0 -30 59 -30 l60 0 -1 30 c-1 30 -1 30 -60 30 -58
0 -58 0 -58 -30z m80 16 c0 -3 -4 -8 -10 -11 -5 -3 -10 -1 -10 4 0 6 5 11 10
11 6 0 10 -2 10 -4z"/>
<path d="M4072 1330 c1 -27 4 -30 35 -30 30 0 33 3 33 30 0 28 -3 30 -34 30
-32 0 -35 -2 -34 -30z"/>
<path d="M4150 1330 c0 -16 5 -30 10 -30 6 0 10 14 10 30 0 17 -4 30 -10 30
-5 0 -10 -13 -10 -30z"/>
<path d="M3650 1254 c0 -24 4 -34 13 -32 19 7 21 54 3 61 -13 5 -16 -1 -16
-29z"/>
<path d="M3690 1253 l0 -32 67 2 c43 1 68 6 71 15 2 6 -5 12 -15 12 -17 1 -17
1 0 14 16 13 15 14 -13 18 -24 4 -30 1 -30 -13 0 -10 -5 -21 -11 -25 -7 -4 -9
2 -7 16 3 20 -2 23 -30 24 -30 1 -32 -1 -32 -31z"/>
<path d="M4040 1276 c-6 -6 -10 -20 -10 -32 0 -20 5 -21 55 -21 55 1 55 1 55
31 0 30 -1 31 -45 31 -26 0 -50 -4 -55 -9z m37 -21 c0 -8 -4 -15 -9 -15 -10 0
-11 14 -1 23 9 10 10 9 10 -8z"/>
<path d="M4157 1283 c-11 -10 -8 -51 3 -58 6 -4 10 8 10 29 0 37 -2 41 -13 29z"/>
<path d="M3887 1252 c-13 -14 -15 -22 -7 -27 16 -10 33 9 28 30 -3 16 -5 15
-21 -3z"/>
<path d="M3933 1223 c9 -2 25 -2 35 0 9 3 1 5 -18 5 -19 0 -27 -2 -17 -5z"/>
<path d="M777 1403 c2 -108 7 -201 12 -206 5 -5 48 -6 98 -2 l89 7 -1 199 0
199 -100 0 -100 0 2 -197z"/>
<path d="M14501 1544 c0 -11 3 -14 6 -6 3 7 2 16 -1 19 -3 4 -6 -2 -5 -13z"/>
<path d="M12960 1465 c0 -9 15 -58 33 -107 5 -16 13 -28 17 -28 5 0 -2 27 -15
60 -13 33 -24 63 -24 66 1 3 -2 8 -5 12 -3 3 -6 2 -6 -3z"/>
<path d="M14473 1455 c-6 -7 -9 -16 -5 -19 3 -4 2 -10 -4 -14 -5 -4 -23 -29
-39 -57 -21 -37 -23 -46 -9 -33 19 17 79 126 73 133 -2 1 -9 -3 -16 -10z"/>
<path d="M2608 1311 c-54 -54 -98 -102 -98 -107 0 -5 102 -10 247 -10 137 -1
297 -4 357 -7 120 -6 150 1 162 35 8 22 8 22 14 -7 10 -58 25 -29 28 56 2 74
0 88 -17 103 -19 17 -19 16 -31 -53 l-12 -71 -109 0 c-66 0 -109 4 -109 10 0
6 7 10 15 10 19 0 48 33 52 59 1 11 4 24 5 28 1 4 -1 18 -6 31 -7 21 -11 22
-144 22 l-137 0 65 -59 c36 -33 62 -62 60 -65 -3 -3 -36 24 -74 60 -66 62 -69
64 -119 63 -52 -1 -52 -1 -149 -98z"/>
<path d="M14335 1258 c-67 -65 -51 -62 -495 -68 l-405 -5 408 -3 c406 -2 409
-2 440 20 41 28 92 77 86 82 -2 2 -17 -10 -34 -26z"/>
<path d="M6298 1273 c7 -3 16 -2 19 1 4 3 -2 6 -13 5 -11 0 -14 -3 -6 -6z"/>
<path d="M13060 1233 c-13 -15 -12 -16 4 -10 10 4 20 7 22 7 2 0 4 5 4 10 0
15 -13 12 -30 -7z"/>
<path d="M13120 1200 c0 -15 57 -21 150 -18 l85 4 -102 2 c-61 1 -103 6 -103
12 0 6 -7 10 -15 10 -8 0 -15 -4 -15 -10z"/>
<path d="M13378 1183 c12 -2 30 -2 40 0 9 3 -1 5 -23 4 -22 0 -30 -2 -17 -4z"/>
</g>
</svg>
